<?xml version="1.0" encoding="UTF-8"?>
<svg id="_图层_2" data-name="图层 2" xmlns="http://www.w3.org/2000/svg" viewBox="0 0 757.5 821">
  <defs>
    <style>
      .cls-1 {
        fill: #d09fff;
      }

      .cls-1, .cls-2, .cls-3, .cls-4, .cls-5, .cls-6, .cls-7 {
        stroke: #000;
        stroke-miterlimit: 10;
      }

      .cls-2 {
        fill: #fbffa1;
      }

      .cls-3 {
        fill: #5ccdff;
      }

      .cls-4 {
        fill: #ff85da;
      }

      .cls-5 {
        fill: #5fff94;
      }

      .cls-6 {
        fill: #e5e5e5;
      }

      .cls-7 {
        fill: #ff5a5a;
      }
    </style>
  </defs>
  <g id="_图层_1-2" data-name="图层 1">
    <path id="jixi" class="cls-4" d="M673,152.43c-1.98.22-3.41,2.64-4.7,4.48-1.02,1.45-2.17,2.71-3.86,3.56-3.88,1.94-5.57,1.68-9.5-2.12-4.86,2.65-9.09,1.01-13.11-2.19-1.94-1.55-8.91-1.36-11.18.85-2.34,2.29-4.85,3.07-7.87,3.01-1.25-.02-1.83,1.03-2.74,1.54-.82.46-1.64,1.23-2.71.8-1.75-.71-3.88-.32-4.08,1.2-.21,1.64-1.34,3.56.48,5.51,1.97,2.13.92,3.92-2.22,5.79-2.69,1.61-3.71.47-4.74-1.96-1.4-3.3-2.41-6.51-1.55-10.15.58-2.48-.4-4.93-.76-7.38-.14-.88-.92-1.95.42-2.31,3.36-.87,4.66-3.67,6.13-6.44,1.56.67,2.96,1.27,3.98,2.51,2.51-3.47,2.02-5.04-1.95-6.22-.75-.22-1.72.46-2.32-.4-3.33-4.76-7.62-1.88-11.26-1-3.92.95-4.98,5.14-6.64,8.41-.1.21-.1.56,0,.76,1.98,4.03-.05,6.27-3.53,7.75-.5.21-1.14.66-1.1.81,1.13,4.7-2.94,5.52-5.52,7.38-1.6,1.15-1.31,2.46-.76,3.92,1.29,3.39.37,5.49-3.11,5.3-3.76-.19-6.08,3.35-9.74,2.96-.39-.04-1.05.89-1.22,1.85-1.1,6.47-5.98,8.93-11.63,9.6-3.66.44-7.33.19-9.89,2.59-2.74-.53-1.79-3.54-3.73-3.97-2.42-.53-2.28,2.81-4.3,3.08-1.19-.41-1.97-1.42-2.66-2.36-2.13-2.9-4.96-1.54-6.98-.62-3.88,1.77-6.08,8.14-5.14,12.71.34,1.63-.39,2.69-1.9,3.54-3.26,1.85-5.52,4.25-5.64,8.52-.06,1.94-1.49,4.27-4.12,4.65-1.69.24-1.85,1.54-2.35,2.74-1.06,2.54-1.75,5.22-2.87,8.22-3.57-.53-7.6-1.73-10.24.71-1.07,1-1.91,2.6-2.4,5.09.03.45,1.24.71,1.95,1.1,2.24,1.24,3.93,3.69,6.58,3.88,3.24.22,3.45-3.49,5.45-4.96.17-.13.51-.02.77-.02s.62-.11.76.02c4.92,4.57,4.9,4.54,11.7,1.55,2.15-.94,4.58-1.22,5.75,1.19,1.55,3.19,3.08,2.9,5.26.28,2.23,3.79,3.16,8.21,7.41,10.14,1.43-.66,2.22-2.32,3.56-3.08,3.57.42,3.05,3.32,3.72,5.46-1.04,1.4-3.75.66-3.98,3.33-.06.18.09.16.46.2,6.31.66,7.39,5.75,8.47,10.51.56,2.47-.41,4.65-3.39,5.49-2.27.64-3.69,2.12-1.16,4.18,1.41,1.15,1.19,2.54,1.12,3.93-.33,6.06,2.2,11.02,5.72,15.65,1.69-.16,2.18-1.68,3-2.23,4.09.36,3.39,5.18,6.37,6.48,1.84-.65,2.39-2.44,3.73-3.66,6.42,3.28,2.92-3.6,4.97-5,1.4.07,3.44.66,4.15-.05,3.27-3.32,7.2-2.22,10.5-1.99.99-.51.99-1.01.87-1.41-1.53-5.15-.25-9.38,3.89-12.87,2.32-1.96,4.16-4.51,7.31-6.18,3.57,5.33,8.05,2.74,12.11,1.01,1.97-.84,4.5-.92,5.86-3.05-2-3.25-1.45-6.91,1.59-10.44,2.28-2.64,8.37-3.62,12.3-1.84,3.09-2.73,1.35-7.11,3.24-10.53,3,2.43,4.47,5.96,7.63,8.12,1.25-.59,1.41-2.29,2.52-3.14,1.32-.2,1.6,1.41,3.16,1.16,1.43-.8,3.46-1.68,5.4-2.73,1.78-.97,3.78-1.47,4.01-4.26.19-2.3,3.27-1.49,4.62-3.07,2.48-2.92,6.3-3.73,9.71-5.01.68-.26,1.49-.47,2.31-.47l.37-.41c.11-3.4,2.54-5.74,3.45-8.88,6.19,4.36,8.74,4.45,11.34.7,1.65-2.37.96-4.33-2.37-6.64-1.49,1.86-1.49,4.45-3.02,6.3-2.3-2.03-2.65-2.31-5.9-2.33-2.06-.02-2.9-.71-2.76-2.78.05-.75.44-1.66-.24-2.25-1.06-1.12-2.85.35-3.56-1.18-.45-3.06,1.18-4.19,3.81-5.21,7.28-2.85,15.7-3.91,19.93-11.96.45-.84,1.51-1.35,2.65-1.67,1.2-.33,2.7-.67,3.14-2.24.11-1.46-2.24-1.15-1.95-2.73l-.78-.39c-2.72-.63-2.94-.78-6.23-3.89-2.54-2.41-4.42-5.4-6.92-7.87-1.37-1.34-1.65-3.18,1.06-4.27,2.62-1.06,3.27-3.91,1.53-6.11-1.11-1.4-2.28-2.68-3.09-4.31-1.27-2.53-3.23-4.63-.09-7.54,1.24-1.15.24-4.8-1.48-7.58-.54-.88-1.15-1.67-1.78-2.27-1.53,3.14-3.89,4.7-7.5,5.1Z"/>
    <path id="shexian" class="cls-3" d="M661.37,238.32c-1.35,1.58-4.43.77-4.62,3.07-.23,2.79-2.23,3.29-4.01,4.26-1.94,1.05-3.97,1.93-5.4,2.73-1.56.25-1.84-1.36-3.16-1.16-1.11.85-1.27,2.55-2.52,3.14-3.16-2.16-4.63-5.69-7.63-8.12-1.89,3.42-.15,7.8-3.24,10.53-3.93-1.78-10.02-.8-12.3,1.84-3.04,3.53-3.59,7.19-1.59,10.44-1.36,2.13-3.89,2.21-5.86,3.05-4.06,1.73-8.54,4.32-12.11-1.01-3.15,1.67-4.99,4.22-7.31,6.18-4.14,3.49-5.42,7.72-3.89,12.87.12.4.12.9-.87,1.41-3.3-.23-7.23-1.33-10.5,1.99-.71.71-2.75.12-4.15.05-2.05,1.4,1.45,8.28-4.97,5-1.34,1.22-1.89,3.01-3.73,3.66-2.98-1.3-2.28-6.12-6.37-6.48-.82.55-1.31,2.07-3,2.23-3.52-4.63-6.05-9.59-5.72-15.65.07-1.39.29-2.78-1.12-3.93-2.53-2.06-1.11-3.54,1.16-4.18,2.98-.84,3.95-3.02,3.39-5.49-1.08-4.76-2.16-9.85-8.47-10.51-.37-.04-.52-.02-.46-.2.23-2.67,2.94-1.93,3.98-3.33-.67-2.14-.15-5.04-3.72-5.46-1.34.76-2.13,2.42-3.56,3.08-4.25-1.93-5.18-6.35-7.41-10.14-2.18,2.62-3.71,2.91-5.26-.28-1.17-2.41-3.6-2.13-5.75-1.19-6.8,2.99-6.78,3.02-11.7-1.55-.14-.13-.5-.02-.76-.02s-.6-.11-.77.02c-2,1.47-2.21,5.18-5.45,4.96-2.65-.19-4.34-2.64-6.58-3.88-.71-.39-1.92-.65-1.95-1.1.49-2.49,1.33-4.09,2.4-5.09l-.88-.75c-1.8-1.32-3.48-2.75-4.61-4.84-2.36.92-4.61.98-7.08.67-4.06-.51-7.85-2.05-12.04-2.25-4.38-.2-8.56-2.55-11.61-5.72-4.76-4.96-10.29-5.71-16.41-4.16-5.39,1.37-10.91,1.72-16.37,2.17-7.06.57-12.09,3.78-15.11,9.88-3.38,6.85-8.74,11.93-14.08,17.09-.73.71-1.48,1.21-2.25,1.54l1.48.02c1.28,2.58.55,5.48,1.41,8.22.89,2.83,1.52,5.28,3.87,7.52,1.64,1.57,1.97,4.69,2.48,7.23.37,1.78-1.07,2.41-2.32,2.67l1.95.05c.38,1.01,1.85,1.69.83,3.14-.25.36-.77.96-.42,1.52,1.78,2.87.86,5.94,1.11,8.93.22,2.64-.35,4.33-1.59,5.97.6,2.35,3.19,2.53,3.94,2.43,7.22-.96,7.19,5.49,9.64,9.22.52.79.66,2.04,1.68,2.22,3.76.63,5.19,3.88,7.42,6.24-.65.73-1.5.98-2.4.76.22,3.64,2.13,5.25,5.08,5.56.15,2.29-2.31,4.64.8,6.15,4.01,1.97,6.99.04,9.65-2.64,2.13,1.34,3.38,3.37,3.51,5.77.12,2.5-.02,4.76,3.16,5.51,1.24.29.75,1.7.79,2.66.21,4.71-.55,9.45,1.46,14.06.9,2.07-1.8,4.62.23,6.94,3.31-.66,6.42.96,9.56,1.76,1.61.41,3.37,2.32,2.8,4.88-.22,1.01-.03,2.1-.03,3.08,3.75.32,5.47,2.53,4.63,5.86-.79,3.15.93,5.4,2.05,8,1.61-.48,3.05-1.32,2.56-2.5-1.45-3.5,1.64-3.81,3.24-5.07,1.87-1.47,3.5.33,4.56,1.23,2.99,2.54,6.2,4.72,9.17,6.75,5.14-.62,3.95-6.1,6.87-8.77,1.52,1.48,2.95,2.04,5.08,1.67,2.74-.47,9.22,4.27,9.14,6.87-.09,3.09,2.09,3.43,3.7,4.68-1.47,2.05-2.69,4.31-3.41,6.64-.76,2.43-2.49,3.79-4.38,3.7-2.52-.13-1-3.08-1.96-4.51-4.24,1.3-4.25,1.41-1.43,9.72-1.79.05-3.49-.09-5.18.03-3.55.23-4.7,1.54-4.24,5.03.13,1.04-1.25,1.34-.67,2.68,4.18,1.45,6.8,5.52,10.73,7.87,1.11.66,1.86,1.83.77,3.06-1.77,1.99.12,3.25.85,4.67.42.81,1.04.71,3.42-.8.92-.58,1.75-.82,2.92-.67.35,1.63.92,3.33,1.52,4.95.58,1.54.5,2.42-.5,3.56-4.12,4.69-3.75,7.49,1.55,12.05.86.74,1.47,1.55,1.15,2.73-.87,3.21.56,5.74,2.23,8.19,1.07-.11,1.83-.97,2.84-.78,2.02.38,4.84-.25,5.69,1.99.77,2.02-1.2,3.35-2.87,4.73-1.88,1.54-4.6,2.9-4.38,6.11,1.84.56,2.71-.59,3.51-1.94.73-1.24,1.52-2.46,3.02-2.82,2.07,1.86.38,4.5,1.36,6.26,1.7,3.03,1.1,5.67-.54,8.2-1.75,2.72-2.05,5.22.08,7.85,2.75-1.91,4.17.34,5.88,1.98,1.41-2.01,2.75-4.68,5.37-1.23.95,1.25,2.21.36,2.66-.08,2.79-2.63,7.38-4.36,5.52-9.66,2.58-3.62-1.51-8.12,1.55-11.68-1.22-7.08,4.75-8.66,9.06-10.2,3.03-1.08,4.49-2.54,5.73-4.97,1.08-2.1,1.72-4.74,3.94-5.75,3.08-1.42,4.5-4.14,5.68-6.76,2.24-4.95,6.68-5.73,11.03-6.43,2.08-.34,4.12-.31,5.4-2.11,1.76-2.48,3.87-1.55,5.84-.69,1.24.53,2.33,1.54,3.12,2.68,1.38,2,2.53,1.26,3.93,0,3.17-2.83,5.52-6.42,8.3-9.57,1.8-2.03,4.48-5,3.37-8.71,1.33-.73,3.65-.41,3.8-2.37.33-4.2,2.99-4.86,6.31-4.64,2.69.19,4.52-.94,4.59-3.53.1-4.13,3.35-6.09,5.63-8.46,4.12-4.28,5.43-14.76,1.37-19.1-2.04-2.17-2.55-4.1-1.48-6.69.52-1.25.39-2.58.4-3.89.02-3.49,1.5-5.43,4.64-4.9,1.84.31,2.84-.22,3.45-1.37.69-1.3-.56-2.22-1.47-3.08-1.51-1.41-1.94-3.06-1.19-5.06,1.33-3.52,2.87-3.93,6.24-1.55,3.33,2.34,3.97,2.35,5.74-1.22.64-1.3,1.57-2.12,2.46-3.03,4.84-4.94,10.38-9.08,15.62-13.56,1.79-1.53,2.6-3.35,2.51-5.15-.14-2.98.51-6.2-.41-8.9-1.45-4.25.1-6.32,3.82-7.66,4,4.51,4.37-2.17,5.67-2.35,4.03.47,4.79,4.08,7.75,4.63.51-1.55.15-2.98.16-4.4.01-4.46-1.65-9.2,1.79-13.27,1.11-1.32.62-3.09-.4-4.2-1.53-1.65-.81-3.32-1.03-5.07-.32-2.6.95-4.45,1.95-6.42.63-1.26,1.15-2.56,1.06-4.14-3.49-3.49-3.42-3.49-3.52-9.33-.05-2.88-.36-5.73-.83-8.61-.49-3.09-2.4-5.68-2.31-8.9.13-5.18-.7-5.57-5.41-3.11-1.66-1.11-1.46-2.73-1.53-4.31l-.78.02c-.8-.85-1.76-1.14-2.71-1.14-.82,0-1.63.21-2.31.47-3.41,1.28-7.23,2.09-9.71,5.01Z"/>
    <path id="xiuning" class="cls-7" d="M525.04,472.93c1.64-2.53,2.24-5.17.54-8.2-.98-1.76.71-4.4-1.36-6.26-1.5.36-2.29,1.58-3.02,2.82-.8,1.35-1.67,2.5-3.51,1.94-.22-3.21,2.5-4.57,4.38-6.11,1.67-1.38,3.64-2.71,2.87-4.73-.85-2.24-3.67-1.61-5.69-1.99-1.01-.19-1.77.67-2.84.78-1.67-2.45-3.1-4.98-2.23-8.19.32-1.18-.29-1.99-1.15-2.73-5.3-4.56-5.67-7.36-1.55-12.05,1-1.14,1.08-2.02.5-3.56-.6-1.62-1.17-3.32-1.52-4.95-1.17-.15-2,.09-2.92.67-2.38,1.51-3,1.61-3.42.8-.73-1.42-2.62-2.68-.85-4.67,1.09-1.23.34-2.4-.77-3.06-3.93-2.35-6.55-6.42-10.73-7.87-.58-1.34.8-1.64.67-2.68-.46-3.49.69-4.8,4.24-5.03,1.69-.12,3.39.02,5.18-.03-2.82-8.31-2.81-8.42,1.43-9.72.96,1.43-.56,4.38,1.96,4.51,1.89.09,3.62-1.27,4.38-3.7.72-2.33,1.94-4.59,3.41-6.64-1.61-1.25-3.79-1.59-3.7-4.68.08-2.6-6.4-7.34-9.14-6.87-2.13.37-3.56-.19-5.08-1.67-2.92,2.67-1.73,8.15-6.87,8.77-2.97-2.03-6.18-4.21-9.17-6.75-1.06-.9-2.69-2.7-4.56-1.23-1.6,1.26-4.69,1.57-3.24,5.07.49,1.18-.95,2.02-2.56,2.5-1.12-2.6-2.84-4.85-2.05-8,.84-3.33-.88-5.54-4.63-5.86,0-.98-.19-2.07.03-3.08.57-2.56-1.19-4.47-2.8-4.88-3.14-.8-6.25-2.42-9.56-1.76-2.03-2.32.67-4.87-.23-6.94-2.01-4.61-1.25-9.35-1.46-14.06-.04-.96.45-2.37-.79-2.66-3.18-.75-3.04-3.01-3.16-5.51-.13-2.4-1.38-4.43-3.51-5.77-2.66,2.68-5.64,4.61-9.65,2.64-3.11-1.51-.65-3.86-.8-6.15-2.95-.31-4.86-1.92-5.08-5.56.9.22,1.75-.03,2.4-.76-2.23-2.36-3.66-5.61-7.42-6.24-1.02-.18-1.16-1.43-1.68-2.22-2.45-3.73-2.42-10.18-9.64-9.22-.75.1-3.34-.08-3.94-2.43,1.24-1.64,1.81-3.33,1.59-5.97-.25-2.99.67-6.06-1.11-8.93-.35-.56.17-1.16.42-1.52,1.02-1.45-.45-2.13-.83-3.14l-1.95-.05c-3.61.75-5.11,2.54-3.92,6.29.58,1.82-.83,2.91-2.3,3.03-3.1.26-5.71,2.61-8.94,1.99-.93-.18-1.19.84-1.95.83q1.7,6.36-4.29,6.2c-.07,2.37-.03,2.32,1.94,3.91,2.88,2.31,6.35,4.3,5.46,8.94,3.73,3.77.96,7.32-.4,10.89-.81,2.12-.23,3.95.75,5.86,1.24,2.41,2.26,4.35-1.4,6.42-3.27,1.85-5.49,5.5-4.79,9.91-4.68,1.61-6.11,1.28-13.62-3.11-.26.26-.79.64-.74.76,1.54,3.39,2.52,6.69.03,10.18-.69.96.24,2.59.8,3.39,1.97,2.75,1.08,6.33,2.97,9.06.43.62.11,1.64-.71,2.32-1.49,1.23-6.42,1.76-8.19.75-1.61-.91-6.26-.38-7.4.77-1.73,1.75.63,3.1.43,4.42-1.34,2.93-4.82.64-6.26,2.99l-.49.09c.95,1.34,1.71,2.81,2.57,4.44-1.56,1.56-3.48,2.99-4.71,4.87-.88,1.36.72,3.68-1.24,5.33-1.13-.79-1.75-1.52-2.5-2.57-1.59-2.22-1.94-4.88-3.3-7.14-.89-1.5-1.59-2.73-3.57-2.3l-.88-.04c-1.25,3.46-1.47,3.38-5.11,4.77,1.35,2.84,2.78,5.8.9,8.88-1.98,3.25-5.48,5.15-7.85,7.98,1.91,4.02.25,7.11-4.18,8.4-3.57,1.04-7.32.54-10.92.83-4.63.37-7.52-4.17-9.55-7.94-1.35-2.51-2.77-3.29-5.22-3.02-3.4.37-6.83.54-9.38,3.46-1.45,1.67-3.78,1.58-5.8,1.95-2.06.38-3.38,1.05-3.14,3.54.56,5.71.16,7.15-5.46,8.37-5.7,1.24-8.77,4.84-11.62,9.15-1.94,2.93-4.16,5.36-7.78,6.27-1.63.41-3.33,1.31-3.87,3.07-1.42,4.66-4.94,8.38-5.85,13.23-.07.37-.19.69-.36.97l.33.19c.39.39.76,1.09,1.17,1.12,4.43.34,5.61,3.29,5.51,7.01,5.99.81,7.91,4.37,5.78,10.16-1.26,3.4,1.1,6.79,4.67,6.6,1.7-.1,2.84,1.09,4.28,1.58l.31.08c.1-.37.16-.78.19-1.24.16-2.53,1.23-3.09,3.91-1.39,1.84,1.16,1.64,3.63,3.76,4.11,3.78-.52,5.92-3.72,8.8-5.62,7.01,5.56,4.21-4.34,7.4-4.47,3.36,1.52,2.28,3.08-.06,4.51,1.29.78,2.77,2.2,3.61.84,2.44-3.91,6.9-4.53,10.5-7.15,4.47,5.67,10.4,7.04,17.63,4.82-.6,4.58,2.07,4.67,5.27,4.16.48,1.39-.25,2.88.7,4.55,1.58-.83,3.35,1.46,4.87-.14,2.31-2.44,5.47-3.12,8.24-4.59,4.69-2.49,5.7-2.25,9.47,1.68,1.11-2,2.76-3.56,3.76-5.6.8-1.65,2.11-1.53,3.85-1.78,4.08-.59,4.83,2.86,6.92,4.59,1.17-1,2.15-2.02,2.8-3.22.91-1.68,1.66-3.48,3.93-3.46,2.85.03,6.23-1.07,8.45.52,3.53,2.53,7.22,5.34,7.98,10.34.27,1.82,1.97,3.78,3.78,3.39,4.97-1.08,9.45,2.91,14.46.98,1.49-.58,2.32.59,2.32,2.26.02,4.19,3.62,6.21,6.36,7.46,1.97.91,3.54,1.89,3.99,3.48.63,2.2,2.05,3.68,3.2,5.35-2.27,3.28-6.71,4.83-7.49,9.4,2.46,1.29,5.35,2.38,4.35,5.81-.53,1.8.15,2.96.94,4.02-.28,1.84-2.56,1.63-2.55,3.79.03,3.32,1.86,7.85,5.63,8.76,3.47.84,6.15,3.26,9.67,3.76,1.36.2,2.36,1.03,3.98.07,1.34-.79,2.99.03,3.06,2.2.02.79,0,1.56-.09,2.27l.46.07c1.68.63,3.03.74,3.55-1.55.25-1.1.9-2.14,1.52-3.12,4.49-7,4.39-7.51,13.67-9.46,3.39-.72,7.99-.64,11.4,2.24,1.4-1.25,2.72-1.98,4.16.57,1.55,2.72,3.98,1.46,6.18.81,2.64-.77,2.55-2.78,2.81-5.05.86-7.48-2.06-14.3-3.16-21.43-.27-1.78-.32-5.17,1.43-4.73,2.28.59,3.87-1.64,5.96-.39,1.21.72,1.52,1.71,1.9,2.8.35,1.01.62,2.03,1.56,2.73,1.21.91,1.98,1.98,2.39,3.22l.34-.12c7.1-2.3,10.39-8.52,14.54-14.25,1.01,1.24,2.43,1.21,3.74.99,4.56-.79,8.75-.14,12.53,2.81.78-1.4,1.64-2.73,2.66-3.95l.81-.35c-2.13-2.63-1.83-5.13-.08-7.85Z"/>
    <path id="wuyuan" class="cls-2" d="M433.7,524.47c-1.62.96-2.62.13-3.98-.07-3.52-.5-6.2-2.92-9.67-3.76-3.77-.91-5.6-5.44-5.63-8.76-.01-2.16,2.27-1.95,2.55-3.79-.79-1.06-1.47-2.22-.94-4.02,1-3.43-1.89-4.52-4.35-5.81.78-4.57,5.22-6.12,7.49-9.4-1.15-1.67-2.57-3.15-3.2-5.35-.45-1.59-2.02-2.57-3.99-3.48-2.74-1.25-6.34-3.27-6.36-7.46,0-1.67-.83-2.84-2.32-2.26-5.01,1.93-9.49-2.06-14.46-.98-1.81.39-3.51-1.57-3.78-3.39-.76-5-4.45-7.81-7.98-10.34-2.22-1.59-5.6-.49-8.45-.52-2.27-.02-3.02,1.78-3.93,3.46-.65,1.2-1.63,2.22-2.8,3.22-2.09-1.73-2.84-5.18-6.92-4.59-1.74.25-3.05.13-3.85,1.78-1,2.04-2.65,3.6-3.76,5.6-3.77-3.93-4.78-4.17-9.47-1.68-2.77,1.47-5.93,2.15-8.24,4.59-1.52,1.6-3.29-.69-4.87.14-.95-1.67-.22-3.16-.7-4.55-3.2.51-5.87.42-5.27-4.16-7.23,2.22-13.16.85-17.63-4.82-3.6,2.62-8.06,3.24-10.5,7.15-.84,1.36-2.32-.06-3.61-.84,2.34-1.43,3.42-2.99.06-4.51-3.19.13-.39,10.03-7.4,4.47-2.88,1.9-5.02,5.1-8.8,5.62-2.12-.48-1.92-2.95-3.76-4.11-2.68-1.7-3.75-1.14-3.91,1.39-.03.46-.09.87-.19,1.24-.37,1.43-1.23,2.27-2.62,3.08-1.42.82-2.53,2.06-3.57,3.42-3.42,4.5-6.37,4.79-10.83,1.16-.78-.64-1.69-1.1-2.32-.67-1.25.85-2.05,2.18-1.99,3.82.09,2.52-.81,4.53-2.7,6.25-2.86,2.61-3.25,2.65-5.85-.42-.35-.4-.74-.4-1.59-.34-1.03,2.12-2.53,4.13-2.83,6.96-.19,1.8-1,3.72-1.85,5.44-.83,1.68-1.21,4.01-3.86,3.9-2.75-.13-2.96-2.26-3.09-4.27-.11-1.82-1.6-2.06-2.75-2.73-3.26,3.82-3.65,7.6-1.05,11.46-1.05,1.56-2.68,1.93-4.39,1.75-4.24-.43-6.37,2.2-7.72,5.51-.95,2.34-1.81,4.87-4.37,5.3-3.13.52-2.29-3.24-3.87-4.56-5.33,2.44-6.42,6.33-2.67,10.85,2.09,2.53,1.07,3.56-1.21,4.75-2.85,1.48-5.98,1.01-9.42,1.21,1.03,3.66,2.8,6.66,3.16,10.05.1,1.04.32,2.25-.4,3.09-2.69,3.17-1.5,6.07.77,9.07-2.95,2.54-6.07,3.87-9.58,5.26-5.63,2.22-12.1,4.64-13.27,12.67,2.91,3.28,5.29,7.52,8.97,11.16-2.44,2.24-3.51,5.39-7.09,5.92-.77.11-1.41,1.14-1.95,1.88-2.86,3.88-3.56,4.12-8.27,2.69-1.73,2.47-3.7,4.74-6.09,6.7-1.6,1.31-2.82,3.36-1.16,5.35,2.14,2.57-.12,4.45-.99,6.19-.8,1.59-1.78,3.29-3.43,4.49,3.58,4.84,5.27,9.76,5.26,15.44-.01,3.51,3.54,4.06,6.14,4.53,1.69.31,3.17.68,3.81,2.11,1.61,3.6,4.54,3,7.42,3.1.6-2.04.9-3.76,1.18-5.46.68-4.24,2.75-5.18,6.23-2.71.59.42,1.05,1.02,1.77,1.74,2.3-2.48,4.82-4.63,8.35-5.31,2.49-.47,3.77.36,3.87,2.78.13,2.94.1,5.75-2.17,8.28-.96,1.07-2.23,2.49-2.43,4.18-.11.93-.48,2.28.75,2.68,3.49,1.12.73,6.49,5.4,7.28,2.17.36,2.16-2.61,3.96-1.34q1.12,3.27-4.7,9.28c.42,5.87,6.02,10.1,10.91,10.82,1.06.16,2.02.47,2.27,1.26,1.62,5.09,6.47,6.59,10.2,9.29,3.34,2.42,3.76,2.63,4.82,5.58,2.13-3.2,4.83-5.6,4.19-9.84-.36-2.42.65-4.82,2.06-7.3,2.14,3.51,6.68,4.78,7.61,9.25.15.73,1,1.09,1.56,1.53,1.34,1.08,2.92,2.93,4.56,1.85,1.79-1.18.66-2.9-.67-4.17-.3-.28,2-8.24,2.3-8.55,1.48-1.5,2.54.92,4.37.17,1.6-3.98,6.17-4.37,9.67-6.35,1.64-.92,3.51-1.07,3.83,1.52.17,1.4.97,2.89,1.94,2.57,1.59-.53,2.57-2.33,1.9-4.1-.34-.9-.69-1.87-1.13-2.73-1.06-2.04.8-1.78,1.78-3.32,3.38,8.31,10.06,7.73,16.57,7.52.29-.01.74-.42,1.16-.32,1.26.29,1.43,2.94,3.52,1.56,2.35-1.57,4.52-3.29,5.8-5.87.34-.69.58-1.42,1.31-2.03,1.1,1.02,2.37,1.85,3.97,2.51.95-2.1,1.35-4.43,2.87-6.34,2.89-3.64,2.72-4.09-1.12-7.36,3.57-3.71,7.1-3.8,9.65.06.76,1.14,1.63,1.4,2.38,1.04,1.41-.69,1.63-2.16.78-3.41-.88-1.27-2.28-2.15-3.13-3.33.87-2.98,3.91-3.95,5.28-7.29,3.5,6.93,9.19,2.58,14.17,3.3,1.84-1.63,2.25-4.99,5.46-6.26,1.14.75,2.05,2.27,3.81,3.1,1.67-.63,3.62-1.15,5.57-1.61,1.16-2.74.39-5.88,1.89-8.6.41-.74.54-2.19,1.24-2.21,3.37-.11,5.18-3.87,8.97-3.33,2.94.42,5.35-2.13,8.09-3.14,2.05-.76.39-2.96-.02-4.89,4.69.21,5.13-3.26,5.5-6.63.36-3.26,1.39-6.19,3.12-8.97,2.08-3.33,3.36-4.17,6.6-2.63,3.03,1.45,3.83.17,4.33-2.41.63-3.25,2.29-6.29,1.42-9.66q4.9-.67,5.58-5.96c3.3,1.46,3.12,4.7,3.89,7.44l1.17.39c1.41-1.22,1.97-3.15,3.5-4.28l.98-.4c-.35-.79-.82-1.57-1.41-2.33,4.6-2.23,7.37,1.84,11.57,2.07.85-.74,1.66-2.36,2.91-3.71,1.84.45,3.4,1.47,5.05,2.38,1.25.7,3.02,1.51,4.19.74,2.9-1.93,5.03-.57,7.51.76.86.47,2.19,1.96,3.43.47s-.16-2.64-.55-4.01c5.58-3.85,5.58-5-.48-8.18,2.69-2.46,6.09-4.08,6.72-8.38.26-1.78,2.93-3.21,5.21-3.97,4.08-1.36,4.71-3.1,3.15-7.36-.41-1.11-.85-2.17-1.63-3.19,4.89-5.61-3.12-6.18-3.79-9.9.12-.42.21-.88.27-1.37.09-.71.11-1.48.09-2.27-.07-2.17-1.72-2.99-3.06-2.2Z"/>
    <path id="yixian" class="cls-5" d="M290.85,271.46c-2.16,3.36-3.64,6.96-3.2,11.18.37,3.69,1.74,4.68,5.09,3.52,2-.7,3.84-2.44,6.69-1.05-.43,1.43.32,2.89-.76,4.59-.94,1.49-.39,3.25,1.05,4.64,1.54,1.49,3.12,1.43,4.66.32.87-.63,1.73-1.01,2.74-1.15,2.01,3.96,6.13,6.95,4.94,12.18,1.72-.29,2.27-1.79,3.64-1.65.26-.13.46.06.79.38,3.57,3.49,3.21,3.3.88,7.85-1.79,3.5-2.81,7.5-1.67,11.62,1.12,4.09,4.35,6.44,8.56,6.66,3.69.2,7.22-1.24,10.9-.83.84.1,2.32-.28,1.86,1.15-.58,1.84.55,2.02,1.65,2.34,1.21.37,2.05.86,1.96,2.36-.14,2.21.77,4.23,1.58,6.21.46,1.13.66,2.1-.05,3.13-2.65,3.83-3.5,9.48-9.73,9.71-.63.02-.56.57-.74.82-1.99,2.93.72,9.77,4.25,10.87l.62.5c.33-.94.73-1.61,2.1-1.69,1.3-.09,2.13-1.16,3.15-1.87,2.43-1.69,4.78-1.82,7.01.69.37.42.71.85,1.03,1.3l.49-.09c1.44-2.35,4.92-.06,6.26-2.99.2-1.32-2.16-2.67-.43-4.42,1.14-1.15,5.79-1.68,7.4-.77,1.77,1.01,6.7.48,8.19-.75.82-.68,1.14-1.7.71-2.32-1.89-2.73-1-6.31-2.97-9.06-.56-.8-1.49-2.43-.8-3.39,2.49-3.49,1.51-6.79-.03-10.18-.05-.12.48-.5.74-.76,7.51,4.39,8.94,4.72,13.62,3.11-.7-4.41,1.52-8.06,4.79-9.91,3.66-2.07,2.64-4.01,1.4-6.42-.98-1.91-1.56-3.74-.75-5.86,1.36-3.57,4.13-7.12.4-10.89.89-4.64-2.58-6.63-5.46-8.94-1.97-1.59-2.01-1.54-1.94-3.91q5.99.16,4.29-6.2c.76.01,1.02-1.01,1.95-.83,3.23.62,5.84-1.73,8.94-1.99,1.47-.12,2.88-1.21,2.3-3.03-1.19-3.75.31-5.54,3.92-6.29,1.25-.26,2.69-.89,2.32-2.67-.51-2.54-.84-5.66-2.48-7.23-2.35-2.24-2.98-4.69-3.87-7.52-.86-2.74-.13-5.64-1.41-8.22l-1.48-.02c-2.11.91-4.36.48-6.62-.83-2.77,1.33-4.43,3.71-4.98,6.33-.42,2.01-1.83,2.54-2.87,2.53-1.14-.01-1.71-1.68-1.94-2.95-.32-1.81.6-3.79-.73-5.55-3.88,6.23-10.46,6.01-16.42,7.06-3.99.71-7.24,2.04-9.38,5.86-4.27,7.61-11.26,6.02-16.6,1.1-1.51-1.39-2.69-2.43-4.75-2.25-2.3.21-2.06-3.17-4.55-3.1-2.32,1.83-5.14,3.09-8.3,3.49-3.68.46-6.41,3.02-9.69,4.37-5.26,2.17-8.08,1.08-8.92-4.37-.29-1.95-1.7-1.76-2.98-2.42-3.2,1.83-5.41,4.96-7.84,7.62-1.9,2.08-3.93,2.96-6.23,3.45l.25,1.09c3.41.94,5.72,3.21,7.45,6.34Z"/>
    <g id="qimen">
      <path class="cls-1" d="M341.81,363.25c-1.02.71-1.85,1.78-3.15,1.87-1.37.08-1.77.75-2.1,1.69-.11.31-.21.65-.34,1.02l.88.04c1.98-.43,2.68.8,3.57,2.3,1.36,2.26,1.71,4.92,3.3,7.14.75,1.05,1.37,1.78,2.5,2.57,1.96-1.65.36-3.97,1.24-5.33,1.23-1.88,3.15-3.31,4.71-4.87-.86-1.63-1.62-3.1-2.57-4.44-.32-.45-.66-.88-1.03-1.3-2.23-2.51-4.58-2.38-7.01-.69Z"/>
      <path class="cls-1" d="M247.24,423.54c.54-1.76,2.24-2.66,3.87-3.07,3.62-.91,5.84-3.34,7.78-6.27,2.85-4.31,5.92-7.91,11.62-9.15,5.62-1.22,6.02-2.66,5.46-8.37-.24-2.49,1.08-3.16,3.14-3.54,2.02-.37,4.35-.28,5.8-1.95,2.55-2.92,5.98-3.09,9.38-3.46,2.45-.27,3.87.51,5.22,3.02,2.03,3.77,4.92,8.31,9.55,7.94,3.6-.29,7.35.21,10.92-.83,4.43-1.29,6.09-4.38,4.18-8.4,2.37-2.83,5.87-4.73,7.85-7.98,1.88-3.08.45-6.04-.9-8.88,3.64-1.39,3.86-1.31,5.11-4.77.13-.37.23-.71.34-1.02l-.62-.5c-3.53-1.1-6.24-7.94-4.25-10.87.18-.25.11-.8.74-.82,6.23-.23,7.08-5.88,9.73-9.71.71-1.03.51-2,.05-3.13-.81-1.98-1.72-4-1.58-6.21.09-1.5-.75-1.99-1.96-2.36-1.1-.32-2.23-.5-1.65-2.34.46-1.43-1.02-1.05-1.86-1.15-3.68-.41-7.21,1.03-10.9.83-4.21-.22-7.44-2.57-8.56-6.66-1.14-4.12-.12-8.12,1.67-11.62,2.33-4.55,2.69-4.36-.88-7.85-.33-.32-.53-.51-.79-.38-1.37-.14-1.92,1.36-3.64,1.65,1.19-5.23-2.93-8.22-4.94-12.18-1.01.14-1.87.52-2.74,1.15-1.54,1.11-3.12,1.17-4.66-.32-1.44-1.39-1.99-3.15-1.05-4.64,1.08-1.7.33-3.16.76-4.59-2.85-1.39-4.69.35-6.69,1.05-3.35,1.16-4.72.17-5.09-3.52-.44-4.22,1.04-7.82,3.2-11.18-1.73-3.13-4.04-5.4-7.45-6.34l-.25-1.09c-.79.16-1.61.28-2.47.38-2.73.33-5.3,1.63-8.21.8-.73-.21-1.14-.94-1.92-.87l-.02-.03c-.36.28-.76.5-1.2.63-2.9.88-4.1,2.99-5.77,4.87-2.66,2.99-5.78,4.35-9.74,3.08-1.51-.48-2.83.04-4.3.28-4.64.75-9.29.86-14.02-.15-2.8-.59-6-.96-8.55,1.43-2.56,2.42-3.89,2.33-5.35-.81-.8-1.7-1.52-2.34-3.2-1.51-4.1,2.02-8.52,1.32-12.83,1.67-1.23.1-2.44.37-3.07-.55-1.67-2.37-3.42-.4-5.32-.28-1.92-1.55-3.51-3.65-5.51-5.26-2.17.78-4.11,3.08-6.35.52-4.15,4.11-4.8,4.18-10.12,1.17-1.49-.84-3.37-.81-4.63-.28-5.08,2.1-9.09,1.18-12.99-2.73-1.74-1.76-4.47-.97-6.93-.18-2.8.9-1.31,2.9-1.46,4.37-.23,2.35-.23,4.66-2.32,6.48-1.1-.59-1.92-1.34-2.84-1.76-4.03-1.87-8.22-2.45-12.42-.44-1.64.79-2.15,4.46-5.06,1.94-3.74,3.05-9.26,1.32-12.8,4.71-1.05,1-2.48,1.1-3.1.65-4.46-3.3-7.57-.12-10.03,2.55-1.97,2.13-3.83,2.62-6.37,2.64-2.1.01-4.12-.56-6.23-.47-4.59.18-7.36,3.46-5.73,7.78,1.22,3.21-.49,6.95,2.18,9.81.7.74-1.16,1.29-.45,2.91,1.32,1.93,3.9,3.51,6,5.56,1.03,1,2.59,1.3,4.23,1.27,4.6-.07,5.72.74,7.36,5.02.64,1.65,1.72,3.11,2.23,4.71.31.99,1.39,1.95.59,3.49-2.14,4.11-2.39,9.28-6.36,12.33-1.49,1.15-1.21,2.03-.69,3.19,1.42,3.19,2.95,6.28,7.38,5.48.5-.09,1.23-.3,1.54.38,1.39,3,4.56,3.05,6.97,4.21,2.79-1.76.18-3.57-.05-5.5,2.46-1.58,5.18-1.39,7.88-1.48.77-.02,2.05.63,2.27-.37.85-3.91,5.14-3.97,6.85-6.89,1.33,1.54,2.29,2.93,2.51,4.58.32,2.35-.35,4.75,1.16,7.03,1.92,2.92,4.09,5.38,7.55,6.79,1.23-2.47,2.23-5.19,5.72-4.02.66-1.85.23-3.33.42-4.75.34-2.52.56-5.24,3.5-6.19,2.15-.69,4.41-1.11,6.62-1.5,1.92-.34,3.76.64,5.03,2.25,1.24,1.55-.13,2.76-.81,3.85-1.34,2.14-.73,5.25-3.42,6.72-.17.1-.11,1.2.3,1.91.94,1.65.56,3.26-1.13,4.22-2.31,1.31-1.49,2.59-1.02,4.75.62,2.82,4.31,3.43,3.95,5.36-.88,4.69,3.49,5.91,4.7,9.65,1.32-1.63,2.66-2.47,4.03-1.4,1.88,1.46-.01,2.33-.65,3.51-.33.61-.49,1.82.28,2.69,1.53,1.71,2.36,4.06,4.75,4.69-.3,2.21-3.64,3.28-1.27,5.84,1.51,1.63.63,3.33-.31,5.05-.97,1.77-2.6,3.63-1.54,5.78,1.05,2.13,2.21,4.22,3.17,6.22,1.97.35,2.08-2.21,3.64-1.83,1.3.46,1.74,1.36,1.71,2.65-.03,2.15-3.08,6.58,3.12,4.37.11-.04,1.01.7,1.54,1.06,3,2.04,4.35,1.75,5.75-1.57.4-.94.78-1.53,1.93-2.09,1.89,3.61,6.57,4.42,8.19,8.15-5.92,9.98-.59,18.07,3.98,26.28,1.47-.11,1.3-2.15,3.01-2.39,1.41.64,2.89,2.93,4.72,1.91,5.05-2.81,7.67.56,10.57,3.57.12.13.5.02.76.02.91-.91,1.69-2.39,2.75-2.63,6.18-1.41,8.44-8.04,13.98-10.23.69-.28,1.27-.7,1.62-1.34.17-.28.29-.6.36-.97.91-4.85,4.43-8.57,5.85-13.23Z"/>
    </g>
    <g id="background">
      <path id="unknown2" class="cls-6" d="M743.47,803.82c-2.34,2.76-4.76,5.2-8.18,6.66-1.82.78-3.3,2.34-4.71,3.82-1.91,1.99-3.68,4.1-5.47,6.2h31.89v-22.74c-1.11.46-2.37.73-3.83.83-3.55.25-7.19,2.28-9.7,5.23Z"/>
      <path id="quzhou" class="cls-6" d="M752.99,599.66c-2.62-1.25-4.87-2.07-7.31.09-.8.7-2.51.63-3.8.9-2.59.54-5.18.56-7.54,2.54-1.6,1.35-4.58.76-6.56,2.4-.18.15-2.1-.02-2.26-1.47-.11-.97-.95-1.42-1.58-1.92-3.78-3.04-4.8-6.12-3.48-10.92.94-3.41-.21-6.6-3.13-7.75-3.89-1.53-7.14-3.62-8.71-8.05,1.76-1.73,3.59-3.53,4.72-6.23-3.37-.1-6.25-.68-7.75-4.01-.31-.69-1.44-1.36-2.64-1.23-2.59.27-4.18-1.15-5.93-3-2.39-2.51-5.31-4.56-7.87-7.31-1.63,1.64-2.87,2.87-4.22,4.22-2.82-1.82-5.08-.87-7.32,1.4-2.01,2.05-2.86,4.69-4.25,7.04-.57.97-.64,2.5-2.32,2.34-3.23-.3-4.46,2-5.9,4.25-.72,1.13-.92,2.84-2.67,3.15-2.29-.78-4.17-.8-6.31,1.07-2.99,2.62-6.38,4.77-8.46,8.28-.82,1.38-1.9,2-3.5,2.39-4.88,1.19-4.98,1.7-3.16,6.17,2.03,4.97.98,9.24-5.42,9.31-2.63.04-4.71.59-5.49,3.52-.26.95-.73,2.43-1.89,2.26-2.4-.35-2.89,1.58-3.41,2.85-.62,1.51-1.76,2.18-2.84,3.31-2.53-2.1-5.26-3.7-7.39-6.07-1.03-1.15-2.38-2.03-3.87-1.51-3.23,1.1-6.64,1.31-9.84,2.86-2.38,1.15-5.62,2.81-8.38.31-.67-2.27,1.72-3.29,1.85-5.17.13-1.74-.33-3.4-.77-5.06-1.28-.25-2.27.82-3.07.81-2.35-1-2.44-3.2-3.45-4.76-.75-1.15-2.07-2.91-1.18-4.16,2.51-3.54,1.16-6.46-.35-9.85-1.05-2.34-1.52-5.36,2.03-7.11,1.4,3.66,2.7,7.49,7.42,7.78,1.31-1.54-.05-2.67-.34-3.7-.96-3.31-2.46-6.65-5.06-8.86-2.24-1.92-.26-4.68-1.57-5.82-2.57-2.23-4.44-4.51-5.03-7.91-.12-.71-1.14-1.32-2.23-1.64-3.07-.89-6.11-1.81-9.05-3.27-1.93-.96-4.44-2.14-6.92-.94-3.89,1.89-8.73-.92-9.35-5.45-.73-5.4-1.67-6.02-7-4.68-1.27.32-2.69,1.55-3.85.36-2.63-2.71-4.74-2.1-7.08.4-2.11,2.26-4.86,2.65-6.21-1.52-.53-1.67-1.39-2.43-3.45-2.91-4.36-1.01-8.73-3.36-11.03-7.01-1.34-2.12-2.11-4.69-4.22-6.29,1.42-1.68,1.9-3.84,4.1-5.17-2.63-1.14-4.51-2.75-7.21-1.65-.79.32-1.92.34-2.72-.7-2.29-3-5.93-4.81-7.41-8.57-.56-1.44-1.73-2.04-3.43-2.48-3.05-.79-5.23-3.01-5.04-6.48.07-1.24-.04-2.37-.39-3.39-.41-1.24-1.18-2.31-2.39-3.22-.94-.7-1.21-1.72-1.56-2.73-.38-1.09-.69-2.08-1.9-2.8-2.09-1.25-3.68.98-5.96.39-1.75-.44-1.7,2.95-1.43,4.73,1.1,7.13,4.02,13.95,3.16,21.43-.26,2.27-.17,4.28-2.81,5.05-2.2.65-4.63,1.91-6.18-.81-1.44-2.55-2.76-1.82-4.16-.57-3.41-2.88-8.01-2.96-11.4-2.24-9.28,1.95-9.18,2.46-13.67,9.46-.62.98-1.27,2.02-1.52,3.12-.52,2.29-1.87,2.18-3.55,1.55l-.46-.07c-.06.49-.15.95-.27,1.37.67,3.72,8.68,4.29,3.79,9.9.78,1.02,1.22,2.08,1.63,3.19,1.56,4.26.93,6-3.15,7.36-2.28.76-4.95,2.19-5.21,3.97-.63,4.3-4.03,5.92-6.72,8.38,6.06,3.18,6.06,4.33.48,8.18.39,1.37,1.79,2.52.55,4.01s-2.57,0-3.43-.47c-2.48-1.33-4.61-2.69-7.51-.76-1.17.77-2.94-.04-4.19-.74-1.65-.91-3.21-1.93-5.05-2.38-1.25,1.35-2.06,2.97-2.91,3.71-4.2-.23-6.97-4.3-11.57-2.07.59.76,1.06,1.54,1.41,2.33.99,2.22,1.14,4.57.99,7.02-.24,3.81-1.82,7.78,1.12,11.31.19.23.16.82,0,1.13-1.12,2.28.05,4.23.99,6.49-4.37,1.13-8.51,2.81-13.02,1.3-1.32,1.33-2.79,2.55-2.74,4.68.1,4.55-2.03,8.65-3.39,12.75-1.1,3.31-.37,4.03,2.23,4.76,2.04.56,2.72,1.39,2.5,3.91-.31,3.75-.45,7.43-2.3,10.67,1.76,2.05,4.86,2.11,5.81,5-3.24,1.51-6.23,3.21-6.19,7.76,1.33,1.72,3.19,3.14,5.98,3.9,6.75,1.84,7.75,3.34,7.82,9.24l.4.76c.24-.14.5-.26.76-.37-.26.11-.52.23-.76.37-.72.42-1.36.98-1.97,1.57-2.16,2.08-1.17,7.82,1.57,8.96,5.03,2.09,5.35,2.24,4.96,7.38-.2,2.56,1.09,4.46,1.77,6.59.36,1.12,1.76,2.62,3.39.82l1.13-.73c-.73-1.41.1-2.37,2.75-2.82,1.08-.18,2.01-.98,2.74-1.9.76-.95,1.66-1.08,2.72-.4,1.12.7,1.03,1.92.7,2.7-.5,1.17-1.01,2.37-1.44,3.55-.93,2.63,1.99,7.45,4.63,7.75,2,.23,2.21-2.34,3.77-2.75,3.45,1.23,7.1.51,10.38,2.98,2.86,2.16,5.08,4.37,6.49,7.57.99,2.29,5.86,5.48,8.16,5.45,2.35-.02,3.17.94,1.89,2.69-2.65,3.65-5.56,7.21-9.36,9.66-1.73,1.12-2.59,2.19-2.19,3.99.24,1.12.81,2.77,2.65,1.56,4.11-2.71,9.72-1.9,13.39-6.08,1.25-1.42,4.61-.23,6.16-1.8,4.74.84,5.8,4.18,7.11,8.21,2.4,7.36,4.94,14.71,7.88,21.91.52,1.27,1.81,1.77,2.13,2.92-2.22,3.79-2.36,5.58,1.17,7.38,4.18,2.12,8.55,4.4,13.54,4.47,1.08.01,2.04-.4,3.11-.47,3.95-.29,6.23,1.05,6.96,4.73.33,1.69-.27,3.39,2.35,4.02,1.66.4,1.27,3.13,1.02,4.1-1.02,4,.43,7.47,2.3,10.45,1.31,2.1,1.71,3.54.59,5.21-.06,2.08,2.08,2.34,2.35,3.85-1.23,3.06,1.37,5.38,1.56,8.17-1.14,1.9-5.55,2.04-3.12,6.11,3.96-3.05,5.65.96,8.16,2.48.54.32.42.67-.37,2.7.18.94.6,1.52,1.17,1.92h208.19c1.79-2.1,3.56-4.21,5.47-6.2,1.41-1.48,2.89-3.04,4.71-3.82,3.42-1.46,5.84-3.9,8.18-6.66,2.51-2.95,6.15-4.98,9.7-5.23,1.46-.1,2.72-.37,3.83-.83v-200.96c-1.52.26-2.82,1.32-4.01,2.86Z"/>
      <path id="yanzhou" class="cls-6" d="M749.66,275.99c-2.69-1.32-4.36-1.03-4.73,2.36-.08.72-.79,1.46-1.72,2.06-1.14-3.56-3.11-6.3-7.18-6.73-2.39-.26-1.51-1.73-1.2-3.12.43-1.91,3.41-2.88,1.97-5.45-2.31-.14-4.69.75-6.1,2.08-2.56,2.44-5.32,4.1-8.91,4.8-1.14-1.29-.39-3.33-1.25-4.96-.37-.7-.04-1.77-1.24-1.9-.92-.1-1.53.07-2,1.13-1.08,2.42-2.92,3.77-5.79,3.57-1.58-.1-2.51,1.27-3.49,2.3-2.4,2.52-4.85,3.81-8.62,2.46-3.05-1.1-6.7-.13-9.68-2.08l-.3-.15c-1,1.97-2.27,3.82-1.95,6.42.22,1.75-.5,3.42,1.03,5.07,1.02,1.11,1.51,2.88.4,4.2-3.44,4.07-1.78,8.81-1.79,13.27-.01,1.42.35,2.85-.16,4.4-2.96-.55-3.72-4.16-7.75-4.63-1.3.18-1.67,6.86-5.67,2.35-3.72,1.34-5.27,3.41-3.82,7.66.92,2.7.27,5.92.41,8.9.09,1.8-.72,3.62-2.51,5.15-5.24,4.48-10.78,8.62-15.62,13.56-.89.91-1.82,1.73-2.46,3.03-1.77,3.57-2.41,3.56-5.74,1.22-3.37-2.38-4.91-1.97-6.24,1.55-.75,2-.32,3.65,1.19,5.06.91.86,2.16,1.78,1.47,3.08-.61,1.15-1.61,1.68-3.45,1.37-3.14-.53-4.62,1.41-4.64,4.9-.01,1.31.12,2.64-.4,3.89-1.07,2.59-.56,4.52,1.48,6.69,4.06,4.34,2.75,14.82-1.37,19.1-2.28,2.37-5.53,4.33-5.63,8.46-.07,2.59-1.9,3.72-4.59,3.53-3.32-.22-5.98.44-6.31,4.64-.15,1.96-2.47,1.64-3.8,2.37,1.11,3.71-1.57,6.68-3.37,8.71-2.78,3.15-5.13,6.74-8.3,9.57-1.4,1.26-2.55,2-3.93,0-.79-1.14-1.88-2.15-3.12-2.68-1.97-.86-4.08-1.79-5.84.69-1.28,1.8-3.32,1.77-5.4,2.11-4.35.7-8.79,1.48-11.03,6.43-1.18,2.62-2.6,5.34-5.68,6.76-2.22,1.01-2.86,3.65-3.94,5.75-1.24,2.43-2.7,3.89-5.73,4.97-4.31,1.54-10.28,3.12-9.06,10.2-3.06,3.56,1.03,8.06-1.55,11.68,1.86,5.3-2.73,7.03-5.52,9.66-.45.44-1.71,1.33-2.66.08-2.62-3.45-3.96-.78-5.37,1.23-1.71-1.64-3.13-3.89-5.88-1.98l-.81.35c-1.02,1.22-1.88,2.55-2.66,3.95-3.78-2.95-7.97-3.6-12.53-2.81-1.31.22-2.73.25-3.74-.99-4.15,5.73-7.44,11.95-14.54,14.25l-.34.12c.35,1.02.46,2.15.39,3.39-.19,3.47,1.99,5.69,5.04,6.48,1.7.44,2.87,1.04,3.43,2.48,1.48,3.76,5.12,5.57,7.41,8.57.8,1.04,1.93,1.02,2.72.7,2.7-1.1,4.58.51,7.21,1.65-2.2,1.33-2.68,3.49-4.1,5.17,2.11,1.6,2.88,4.17,4.22,6.29,2.3,3.65,6.67,6,11.03,7.01,2.06.48,2.92,1.24,3.45,2.91,1.35,4.17,4.1,3.78,6.21,1.52,2.34-2.5,4.45-3.11,7.08-.4,1.16,1.19,2.58-.04,3.85-.36,5.33-1.34,6.27-.72,7,4.68.62,4.53,5.46,7.34,9.35,5.45,2.48-1.2,4.99-.02,6.92.94,2.94,1.46,5.98,2.38,9.05,3.27,1.09.32,2.11.93,2.23,1.64.59,3.4,2.46,5.68,5.03,7.91,1.31,1.14-.67,3.9,1.57,5.82,2.6,2.21,4.1,5.55,5.06,8.86.29,1.03,1.65,2.16.34,3.7-4.72-.29-6.02-4.12-7.42-7.78-3.55,1.75-3.08,4.77-2.03,7.11,1.51,3.39,2.86,6.31.35,9.85-.89,1.25.43,3.01,1.18,4.16,1.01,1.56,1.1,3.76,3.45,4.76.8.01,1.79-1.06,3.07-.81.44,1.66.9,3.32.77,5.06-.13,1.88-2.52,2.9-1.85,5.17,2.76,2.5,6,.84,8.38-.31,3.2-1.55,6.61-1.76,9.84-2.86,1.49-.52,2.84.36,3.87,1.51,2.13,2.37,4.86,3.97,7.39,6.07,1.08-1.13,2.22-1.8,2.84-3.31.52-1.27,1.01-3.2,3.41-2.85,1.16.17,1.63-1.31,1.89-2.26.78-2.93,2.86-3.48,5.49-3.52,6.4-.07,7.45-4.34,5.42-9.31-1.82-4.47-1.72-4.98,3.16-6.17,1.6-.39,2.68-1.01,3.5-2.39,2.08-3.51,5.47-5.66,8.46-8.28,2.14-1.87,4.02-1.85,6.31-1.07,1.75-.31,1.95-2.02,2.67-3.15,1.44-2.25,2.67-4.55,5.9-4.25,1.68.16,1.75-1.37,2.32-2.34,1.39-2.35,2.24-4.99,4.25-7.04,2.24-2.27,4.5-3.22,7.32-1.4,1.35-1.35,2.59-2.58,4.22-4.22,2.56,2.75,5.48,4.8,7.87,7.31,1.75,1.85,3.34,3.27,5.93,3,1.2-.13,2.33.54,2.64,1.23,1.5,3.33,4.38,3.91,7.75,4.01-1.13,2.7-2.96,4.5-4.72,6.23,1.57,4.43,4.82,6.52,8.71,8.05,2.92,1.15,4.07,4.34,3.13,7.75-1.32,4.8-.3,7.88,3.48,10.92.63.5,1.47.95,1.58,1.92.16,1.45,2.08,1.62,2.26,1.47,1.98-1.64,4.96-1.05,6.56-2.4,2.36-1.98,4.95-2,7.54-2.54,1.29-.27,3-.2,3.8-.9,2.44-2.16,4.69-1.34,7.31-.09,1.19-1.54,2.49-2.6,4.01-2.86v-322.47c-.39.29-.77.57-1.17.83-1.78,1.16-3.99,1.9-6.17.83Z"/>
      <path id="hangzhou" class="cls-6" d="M749.95,151.8c-2.14,3.52-4.02,3.37-6.06-.37-1.6-2.94-3.37-.99-5.13-.74-1.05-.94-1.7-2.16-1.91-3.51-.23-1.45.45-3.19-1.6-3.89-1.78-.61-3.52-1.09-5.46-.42-1.21.41-2.31.99-3.91.54-3.04-.85-5.33-1.38-4.37-5.59.74-3.29-.38-3.66-4.55-1.92-.91-.56-1.13-1.69-1.94-2.33q-4.24,0-5.45-3.12c-4.77,1.62-5.26,2.11-6.75,7.06-1.95-.52-4-.45-4.91,1.9-.51,1.31-1.6,1.93-2.74,1.87-1.49-.07-2.45.59-3.09,1.64-1.72,2.85-3.78,5.03-7.42,5.11-.47.01-1.22.48-1.56,1.1l-.82.47c1.72,2.78,2.72,6.43,1.48,7.58-3.14,2.91-1.18,5.01.09,7.54.81,1.63,1.98,2.91,3.09,4.31,1.74,2.2,1.09,5.05-1.53,6.11-2.71,1.09-2.43,2.93-1.06,4.27,2.5,2.47,4.38,5.46,6.92,7.87,3.29,3.11,3.51,3.26,6.23,3.89l.78.39c-.29,1.58,2.06,1.27,1.95,2.73-.44,1.57-1.94,1.91-3.14,2.24-1.14.32-2.2.83-2.65,1.67-4.23,8.05-12.65,9.11-19.93,11.96-2.63,1.02-4.26,2.15-3.81,5.21.71,1.53,2.5.06,3.56,1.18.68.59.29,1.5.24,2.25-.14,2.07.7,2.76,2.76,2.78,3.25.02,3.6.3,5.9,2.33,1.53-1.85,1.53-4.44,3.02-6.3,3.33,2.31,4.02,4.27,2.37,6.64-2.6,3.75-5.15,3.66-11.34-.7-.91,3.14-3.34,5.48-3.45,8.88l-.37.41c.95,0,1.91.29,2.71,1.14l.78-.02c-.02-.38-.05-.75-.13-1.12-.3-1.44,2-3.32-.65-4.31,2.65.99.35,2.87.65,4.31.08.37.11.74.13,1.12.07,1.58-.13,3.2,1.53,4.31,4.71-2.46,5.54-2.07,5.41,3.11-.09,3.22,1.82,5.81,2.31,8.9.47,2.88.78,5.73.83,8.61.1,5.84.03,5.84,3.52,9.33.09,1.58-.43,2.88-1.06,4.14l.3.15c2.98,1.95,6.63.98,9.68,2.08,3.77,1.35,6.22.06,8.62-2.46.98-1.03,1.91-2.4,3.49-2.3,2.87.2,4.71-1.15,5.79-3.57.47-1.06,1.08-1.23,2-1.13,1.2.13.87,1.2,1.24,1.9.86,1.63.11,3.67,1.25,4.96,3.59-.7,6.35-2.36,8.91-4.8,1.41-1.33,3.79-2.22,6.1-2.08,1.44,2.57-1.54,3.54-1.97,5.45-.31,1.39-1.19,2.86,1.2,3.12,4.07.43,6.04,3.17,7.18,6.73.93-.6,1.64-1.34,1.72-2.06.37-3.39,2.04-3.68,4.73-2.36,2.18,1.07,4.39.33,6.17-.83.4-.26.78-.54,1.17-.83v-128.76c-2.39,1.8-5.22,3.22-7.05,6.23Z"/>
      <path id="ningguo" class="cls-6" d="M406.78,2.81c-2.97,2.36-4.2,5.56-3.89,9.32.27,3.4-2.1,5.46-4.37,6.89-3.92,2.49-5.83,5.61-5.82,10.24,0,2.57-3.1,3.69-5.35,1.89-1.52-1.22-2.99-2.5-4.65-3.5-.92.21-1.51.79-1.2,1.59,1.54,3.94-2.05,5.56-3.34,8.28-2.19,4.64-5.77,4.43-9.52,4.09-1.49-.14-2.88-.27-4.29.12-3.03.84-4.27,2.7-3.06,5.4,2.72,6.06,1.67,11.23-2.76,16.01-2.72,2.94-3.68,7.02-6.17,10.16-.25.31-1.11,1.4-.13,2.33.25.25.46,1.61-.35,1.85-5.02,1.46-4.26,6.28-5.93,9.72-.43.9-.31,2.22-1.92,2.53,6.41,3.31,6.46,3.33,3.17,9.57-1.38,2.62-2.04,4.65.23,7.55,1.73,2.22,2.23,5.47,5.39,7.16-2.6,4.27-5.45,7.99-7.65,12.1-.82,1.52-3.39,1.03-4.95,2.01l-1.12.41c2.08,2.1,2.76,5.11,4.6,7.39,1.88,2.32,1.33,4.05-1.52,5.09-.2.07-.9.1-.8.77-.4,1.46,1.97,1.57,1.59,2.96-.04.92-.75,1.5-1.21,1.61-3.89.91-5.75,3.81-7.41,7.05-.82,1.59-1.52,3.33-3.86,3.56-4.1.42-5.51,2.91-3.87,6.57.45,1.01,2.04,1.27,1.93,2.89-2.11,2.47-4.87,2.7-7.78,1.74-1.58-.52-3.26-.69-4.23.49-2.9,3.49-5.39,7.34-10.56,7.81-.72.06-1.06,1.21-1.27,2.23-.37,1.76.07,3.41,0,5.08-.12,2.84,1.38,3.36,3.58,3.1,3.99-.47,7.39.37,9.73,3.91-2.39,2.2-1.06,6.6-3.61,7.97-3.05,1.64-6.03,3.16-8.11,5.98-1.62-.6-2.5-1.77-3.85-1.89-2.84,1.14-2.92,5.57-5.1,5.97-4.24.78-5.43,4.38-7.61,6.31-1.49.49-2.26-.15-2.82-.64-2.55-2.24-4.72-1.94-7.08.39-1.41,1.39-3.53,1.37-5.41,1.57-3.54.36-7.21.04-10.13,2.73-.74.68-1.79.32-2.71.42-4.42.47-7.62,4.02-7.4,8.09-1.07,1.16-3.03.49-3.89,2.02-.11,1.68,1.4,2.96,1.36,4.47-1.75,1.88-3.3-1.19-5.11.38-.45,1.71.33,3.82-.55,5.65-1.1,2.28-3.99,3.37-4.29,6.57,2.84.06,3.64,2.81,5.18,4.44,2-.68,2.54-2.32,3.39-3.62,1.93-2.95,4.44-3.69,6.99-1.49,2.31,1.99,4.71,1.14,7.02.63,1.3-.28,2.78-1.61,3.88-1.31,1.56.42,3.46-.58,4.71,1.02,1.11,1.42.31,2.81.06,4.29-.29,1.77-.29,3.66-.01,5.43.45,2.97-.32,6.59-2.41,8.15l.02.03c.78-.07,1.19.66,1.92.87,2.91.83,5.48-.47,8.21-.8.86-.1,1.68-.22,2.47-.38,2.3-.49,4.33-1.37,6.23-3.45,2.43-2.66,4.64-5.79,7.84-7.62,1.28.66,2.69.47,2.98,2.42.84,5.45,3.66,6.54,8.92,4.37,3.28-1.35,6.01-3.91,9.69-4.37,3.16-.4,5.98-1.66,8.3-3.49,2.49-.07,2.25,3.31,4.55,3.1,2.06-.18,3.24.86,4.75,2.25,5.34,4.92,12.33,6.51,16.6-1.1,2.14-3.82,5.39-5.15,9.38-5.86,5.96-1.05,12.54-.83,16.42-7.06,1.33,1.76.41,3.74.73,5.55.23,1.27.8,2.94,1.94,2.95,1.04.01,2.45-.52,2.87-2.53.55-2.62,2.21-5,4.98-6.33,2.26,1.31,4.51,1.74,6.62.83.77-.33,1.52-.83,2.25-1.54,5.34-5.16,10.7-10.24,14.08-17.09,3.02-6.1,8.05-9.31,15.11-9.88,5.46-.45,10.98-.8,16.37-2.17,6.12-1.55,11.65-.8,16.41,4.16,3.05,3.17,7.23,5.52,11.61,5.72,4.19.2,7.98,1.74,12.04,2.25,2.47.31,4.72.25,7.08-.67,1.13,2.09,2.81,3.52,4.61,4.84l.88.75c2.64-2.44,6.67-1.24,10.24-.71,1.12-3,1.81-5.68,2.87-8.22.5-1.2.66-2.5,2.35-2.74,2.63-.38,4.06-2.71,4.12-4.65.12-4.27,2.38-6.67,5.64-8.52,1.51-.85,2.24-1.91,1.9-3.54-.94-4.57,1.26-10.94,5.14-12.71,2.02-.92,4.85-2.28,6.98.62.69.94,1.47,1.95,2.66,2.36,2.02-.27,1.88-3.61,4.3-3.08,1.94.43.99,3.44,3.73,3.97,2.56-2.4,6.23-2.15,9.89-2.59,5.65-.67,10.53-3.13,11.63-9.6.17-.96.83-1.89,1.22-1.85,3.66.39,5.98-3.15,9.74-2.96,3.48.19,4.4-1.91,3.11-5.3-.55-1.46-.84-2.77.76-3.92,2.58-1.86,6.65-2.68,5.52-7.38-.04-.15.6-.6,1.1-.81,3.48-1.48,5.51-3.72,3.53-7.75-.1-.2-.1-.55,0-.76,1.66-3.27,2.72-7.46,6.64-8.41,3.64-.88,7.93-3.76,11.26,1,.6.86,1.57.18,2.32.4,3.97,1.18,4.46,2.75,1.95,6.22-1.02-1.24-2.42-1.84-3.98-2.51-1.47,2.77-2.77,5.57-6.13,6.44-1.34.36-.56,1.43-.42,2.31.36,2.45,1.34,4.9.76,7.38-.86,3.64.15,6.85,1.55,10.15,1.03,2.43,2.05,3.57,4.74,1.96,3.14-1.87,4.19-3.66,2.22-5.79-1.82-1.95-.69-3.87-.48-5.51.2-1.52,2.33-1.91,4.08-1.2,1.07.43,1.89-.34,2.71-.8.91-.51,1.49-1.56,2.74-1.54,3.02.06,5.53-.72,7.87-3.01,2.27-2.21,9.24-2.4,11.18-.85,4.02,3.2,8.25,4.84,13.11,2.19,3.93,3.8,5.62,4.06,9.5,2.12,1.69-.85,2.84-2.11,3.86-3.56,1.29-1.84,2.72-4.26,4.7-4.48,3.61-.4,5.97-1.96,7.5-5.1.63.6,1.24,1.39,1.78,2.27l.82-.47c.34-.62,1.09-1.09,1.56-1.1,3.64-.08,5.7-2.26,7.42-5.11.64-1.05,1.6-1.71,3.09-1.64,1.14.06,2.23-.56,2.74-1.87.91-2.35,2.96-2.42,4.91-1.9,1.49-4.95,1.98-5.44,6.75-7.06q1.21,3.12,5.45,3.12c.81.64,1.03,1.77,1.94,2.33,4.17-1.74,5.29-1.37,4.55,1.92-.96,4.21,1.33,4.74,4.37,5.59,1.6.45,2.7-.13,3.91-.54,1.94-.67,3.68-.19,5.46.42,2.05.7,1.37,2.44,1.6,3.89.21,1.35.86,2.57,1.91,3.51,1.76-.25,3.53-2.2,5.13.74,2.04,3.74,3.92,3.89,6.06.37,1.83-3.01,4.66-4.43,7.05-6.23V.5h-348c-.61.84-1.34,1.61-2.22,2.31Z"/>
      <path id="guangxin" class="cls-6" d="M515.75,818.58c.79-2.03.91-2.38.37-2.7-2.51-1.52-4.2-5.53-8.16-2.48-2.43-4.07,1.98-4.21,3.12-6.11-.19-2.79-2.79-5.11-1.56-8.17-.27-1.51-2.41-1.77-2.35-3.85,1.12-1.67.72-3.11-.59-5.21-1.87-2.98-3.32-6.45-2.3-10.45.25-.97.64-3.7-1.02-4.1-2.62-.63-2.02-2.33-2.35-4.02-.73-3.68-3.01-5.02-6.96-4.73-1.07.07-2.03.48-3.11.47-4.99-.07-9.36-2.35-13.54-4.47-3.53-1.8-3.39-3.59-1.17-7.38-.32-1.15-1.61-1.65-2.13-2.92-2.94-7.2-5.48-14.55-7.88-21.91-1.31-4.03-2.37-7.37-7.11-8.21-1.55,1.57-4.91.38-6.16,1.8-3.67,4.18-9.28,3.37-13.39,6.08-1.84,1.21-2.41-.44-2.65-1.56-.4-1.8.46-2.87,2.19-3.99,3.8-2.45,6.71-6.01,9.36-9.66,1.28-1.75.46-2.71-1.89-2.69-2.3.03-7.17-3.16-8.16-5.45-1.41-3.2-3.63-5.41-6.49-7.57-3.28-2.47-6.93-1.75-10.38-2.98-1.56.41-1.77,2.98-3.77,2.75-2.64-.3-5.56-5.12-4.63-7.75.43-1.18.94-2.38,1.44-3.55.33-.78.42-2-.7-2.7-1.06-.68-1.96-.55-2.72.4-.73.92-1.66,1.72-2.74,1.9-2.65.45-3.48,1.41-2.75,2.82.27.54.76,1.14,1.47,1.8-1.92,2.86-5.51,3.28-7.29,5.92-.92,1.36-2.36,2.24-3.89,2.7-1.96.58-2.18-2.19-3.3-2.5-1.84.65-1.5,1.8-1.31,2.52,1.04,3.87-.45,6.73-3.14,9.38-5.39,5.33-5.21,6.11,1.54,8.93-.64,2.05-.71,4.24-1.59,6.23-3.47,0-6.98-.02-10.48,0-1.86.01-4.1-.14-4.94-1.63-1.53-2.72-3.58-3.55-6.34-3.01-2.5.5-4.94-1.39-7.67-.56.55,2.01,1.83,2.99,2.3,4.73-2.34.36-4.27,1.84-6.37,2.66-3.78,1.46-3.89,1.08-2.71,4.83.18.55.37,1.4-.79,2.27-3.03.45-5.52-.9-7.35-3.84-1.38-2.23-2.99-4.27-5.35-5.47-1.5.34-2.83,1.46-4.57.31-.45-1.73,0-4.47-2.54-4.87-3.3-.53-2.39,3.18-3.88,4.66-4.16-1.72-6.86.56-9.28,3.35,1.45,1.93,2.4,4.93,5.01,5.01,4.97.14,9.27.7,10.94,6.33.18.62.92,1.15,1.52,1.56,5.91,4.06,5.22,9.78,3.85,15.58-1.11,4.7-3.65,5.94-8.14,4.29-4.27-1.57-4.67-1.33-5.47,3.11-.24,1.35,1.01,3.17-1.9,3.68-1.77.32-3.41.87-5.07.17-2.09-.88-4.09-1.97-5.89-3.42-.73-.58-1.64-1.44-2.68-1.18-2.89.73-5.26-.76-7.8-1.58-3.27-1.06-6.23-2.74-9.85.23-2.87,2.36-5.34,1.16-6.82-2.21-.24-.55-.33-1.18-.85-1.52-3.01-1.94-10.84-.79-11.38,2.37-.75,4.37-3.43,4.92-6.5,5.82-.07.02-.01.49-.01.75,2.64.75,4.49,1.94,4.66,3.12.34,2.36-2,2.39-3.11,3.5-1.28,1.3-2.69,2.35-1.61,4.7,1.64,3.55.66,7.87,3.11,11.3.55.76-1.01,1.36-1.15,2.63,1.41,1.58,4.07,3.14,3.08,5.86-1.47,4.01-4.05,7.61-4.25,12.09-.01.28-.49.88-1.12.79-1.51-.28-1.77-2.41-3.53-2.37-1.44,1.38-.52,3.14-.74,4.7-.44,3.14-2.19,4.3-5.06,3.08-1.54-.66-3.11-.74-4.69-.74-.91-.01-1.81.02-2.72-.01.91.03,1.81,0,2.72.01v-.4c.29-2.08-1.16-3.68-2.4-4.56-3.99-2.81-7.52-6.5-12.39-7.85-3.5-.98-3.94-4.01-4.63-6.91-4.25.9-6.83,3.48-9.31,6.15-.19.2-.45.94-.46,1.5-.14,8.12-.12,8.24-2.77,13.2-.35.67-.81,1.17-.73,1.98.04.41.05.79.01,1.14h296.96c-.57-.4-.99-.98-1.17-1.92Z"/>
      <path id="chizhou" class="cls-6" d="M6.38,411.12c.78-1.81,2.89-2.31,4.97-2.01.63.09.93.78,2.01.14,2.73-1.58,5.44-.7,7.72,1.43,1.31,1.23,2.54,1.32,3.49-.39,1.3-2.36,3.32-3.15,5.84-2.69,1.13.21,2.26-.21,2.66-.85,1.6-2.59,3.88-3.3,6.69-3.07.92.07,1.53-.08,1.99-1.15,1.05-2.43,3-2.6,5.42-2.03,1.93.45,3.34.13,4.03-2.62,1.13-4.53,1.42-8.46-2.5-11.71-.87-.73-.88-1.91-1.76-2.82,2.52-2.65,3.34-6.65,7.57-7.82,1.39-.38,3.05-2.05,3.37-3.42.42-1.77,2.73-4.51-.28-5.64-2.4-.92-3.39-2.42-4.04-4.78-3.77,1.78-6.54.45-7.81-2.83-.58-1.51-1.44-1.88-2.39-2.77-2.45-2.29-6.11-2.36-8.6-4.89,1.56-2.11,2.04-5.06,5.38-4.71,2.26.24,3.53-.48,4.35-2.73,1.47-4.07,5.55-5.26,8.94-6.93,2.8-1.38,4.59-6.09,2.67-8.66-2.26-3.04-2.51-5.85.06-8.11,4.22-3.71,8.17-8.23,14.74-7.49,1,.12,1.88-.47,2.75-1.09,1.22-.86,2.69-1.37,4.25-1.2,2.28.25,3.99-.74,5.45-2.35l.67-.55c-.71-1.62,1.15-2.17.45-2.91-2.67-2.86-.96-6.6-2.18-9.81-1.63-4.32,1.14-7.6,5.73-7.78,2.11-.09,4.13.48,6.23.47,2.54-.02,4.4-.51,6.37-2.64,2.46-2.67,5.57-5.85,10.03-2.55.62.45,2.05.35,3.1-.65,3.54-3.39,9.06-1.66,12.8-4.71,2.91,2.52,3.42-1.15,5.06-1.94,4.2-2.01,8.39-1.43,12.42.44.92.42,1.74,1.17,2.84,1.76,2.09-1.82,2.09-4.13,2.32-6.48.15-1.47-1.34-3.47,1.46-4.37,2.46-.79,5.19-1.58,6.93.18,3.9,3.91,7.91,4.83,12.99,2.73,1.26-.53,3.14-.56,4.63.28,5.32,3.01,5.97,2.94,10.12-1.17,2.24,2.56,4.18.26,6.35-.52,2,1.61,3.59,3.71,5.51,5.26,1.9-.12,3.65-2.09,5.32.28.63.92,1.84.65,3.07.55,4.31-.35,8.73.35,12.83-1.67,1.68-.83,2.4-.19,3.2,1.51,1.46,3.14,2.79,3.23,5.35.81,2.55-2.39,5.75-2.02,8.55-1.43,4.73,1.01,9.38.9,14.02.15,1.47-.24,2.79-.76,4.3-.28,3.96,1.27,7.08-.09,9.74-3.08,1.67-1.88,2.87-3.99,5.77-4.87.44-.13.84-.35,1.2-.63,2.09-1.56,2.86-5.18,2.41-8.15-.28-1.77-.28-3.66.01-5.43.25-1.48,1.05-2.87-.06-4.29-1.25-1.6-3.15-.6-4.71-1.02-1.1-.3-2.58,1.03-3.88,1.31-2.31.51-4.71,1.36-7.02-.63-2.55-2.2-5.06-1.46-6.99,1.49-.85,1.3-1.39,2.94-3.39,3.62-1.54-1.63-2.34-4.38-5.18-4.44.3-3.2,3.19-4.29,4.29-6.57.88-1.83.1-3.94.55-5.65,1.81-1.57,3.36,1.5,5.11-.38.04-1.51-1.47-2.79-1.36-4.47.86-1.53,2.82-.86,3.89-2.02-.22-4.07,2.98-7.62,7.4-8.09.92-.1,1.97.26,2.71-.42,2.92-2.69,6.59-2.37,10.13-2.73,1.88-.2,4-.18,5.41-1.57,2.36-2.33,4.53-2.63,7.08-.39.56.49,1.33,1.13,2.82.64,2.18-1.93,3.37-5.53,7.61-6.31,2.18-.4,2.26-4.83,5.1-5.97,1.35.12,2.23,1.29,3.85,1.89,2.08-2.82,5.06-4.34,8.11-5.98,2.55-1.37,1.22-5.77,3.61-7.97-2.34-3.54-5.74-4.38-9.73-3.91-2.2.26-3.7-.26-3.58-3.1.06-1.67-.38-3.32,0-5.08.21-1.02.55-2.17,1.27-2.23,5.17-.47,7.66-4.32,10.56-7.81.97-1.18,2.65-1.01,4.23-.49,2.91.96,5.67.73,7.78-1.74.11-1.62-1.48-1.88-1.93-2.89-1.64-3.66-.23-6.15,3.87-6.57,2.34-.23,3.04-1.97,3.86-3.56,1.66-3.24,3.52-6.14,7.41-7.05.46-.11,1.17-.69,1.21-1.61.38-1.39-1.99-1.5-1.59-2.96-.1-.67.6-.7.8-.77,2.85-1.04,3.4-2.77,1.52-5.09-1.84-2.28-2.52-5.29-4.6-7.39-.14-.14-.29-.28-.44-.41.15.13.3.27.44.41l1.12-.41c1.56-.98,4.13-.49,4.95-2.01,2.2-4.11,5.05-7.83,7.65-12.1-3.16-1.69-3.66-4.94-5.39-7.16-2.27-2.9-1.61-4.93-.23-7.55,3.29-6.24,3.24-6.26-3.17-9.57,1.61-.31,1.49-1.63,1.92-2.53,1.67-3.44.91-8.26,5.93-9.72.81-.24.6-1.6.35-1.85-.98-.93-.12-2.02.13-2.33,2.49-3.14,3.45-7.22,6.17-10.16,4.43-4.78,5.48-9.95,2.76-16.01-1.21-2.7.03-4.56,3.06-5.4,1.41-.39,2.8-.26,4.29-.12,3.75.34,7.33.55,9.52-4.09,1.29-2.72,4.88-4.34,3.34-8.28-.31-.8.28-1.38,1.2-1.59,1.66,1,3.13,2.28,4.65,3.5,2.25,1.8,5.35.68,5.35-1.89-.01-4.63,1.9-7.75,5.82-10.24,2.27-1.43,4.64-3.49,4.37-6.89-.31-3.76.92-6.96,3.89-9.32.88-.7,1.61-1.47,2.22-2.31H117.04c-7.21,4.13-14.49,8.07-21.93,11.81-4.55,2.29-8.02,10.6-2.76,16.52,2.66,2.99,4.6,6.39,6.51,9.8,2.64,4.7,3.62,9.7.82,14.75-2.57,4.62-1.83,9.99-3.73,14.86-2.28,5.86-6,10.46-10.32,14.68-3.49,3.4-9.42,3.07-14.34-.35-3.04-2.11-5.63-4.76-8.54-7.04-3.21-2.51-6.61-3.04-10.55-2.34-6.17,1.08-12.45.4-18.67.37-5.5-.02-10.97-.24-16.35,1.22-1.93.52-3.21,1.9-4.69,3.1-4.12,3.32-7.5,7.56-11.99,10.42v335.26c.54-.5.65-1.16.64-1.58-.18-4.59,3.66-7.18,5.24-10.86Z"/>
      <path id="raozhou" class="cls-6" d="M219.95,819.36c-.08-.81.38-1.31.73-1.98,2.65-4.96,2.63-5.08,2.77-13.2.01-.56.27-1.3.46-1.5,2.48-2.67,5.06-5.25,9.31-6.15.69,2.9,1.13,5.93,4.63,6.91,4.87,1.35,8.4,5.04,12.39,7.85,1.24.88,2.69,2.48,2.41,4.56v.4c1.57,0,3.14.08,4.68.74,2.87,1.22,4.62.06,5.06-3.08.22-1.56-.7-3.32.74-4.7,1.76-.04,2.02,2.09,3.53,2.37.63.09,1.11-.51,1.12-.79.2-4.48,2.78-8.08,4.25-12.09.99-2.72-1.67-4.28-3.08-5.86.14-1.27,1.7-1.87,1.15-2.63-2.45-3.43-1.47-7.75-3.11-11.3-1.08-2.35.33-3.4,1.61-4.7,1.11-1.11,3.45-1.14,3.11-3.5-.17-1.18-2.02-2.37-4.66-3.12,0-.26-.06-.73.01-.75,3.07-.9,5.75-1.45,6.5-5.82.54-3.16,8.37-4.31,11.38-2.37.52.34.61.97.85,1.52,1.48,3.37,3.95,4.57,6.82,2.21,3.62-2.97,6.58-1.29,9.85-.23,2.54.82,4.91,2.31,7.8,1.58,1.04-.26,1.95.6,2.68,1.18,1.8,1.45,3.8,2.54,5.89,3.42,1.66.7,3.3.15,5.07-.17,2.91-.51,1.66-2.33,1.9-3.68.8-4.44,1.2-4.68,5.47-3.11,4.49,1.65,7.03.41,8.14-4.29,1.37-5.8,2.06-11.52-3.85-15.58-.6-.41-1.34-.94-1.52-1.56-1.67-5.63-5.97-6.19-10.94-6.33-2.61-.08-3.56-3.08-5.01-5.01,2.42-2.79,5.12-5.07,9.28-3.35,1.49-1.48.58-5.19,3.88-4.66,2.53.4,2.09,3.14,2.54,4.87,1.74,1.15,3.07.03,4.57-.31,2.36,1.2,3.97,3.24,5.35,5.47,1.83,2.94,4.32,4.29,7.35,3.84,1.16-.87.97-1.72.79-2.27-1.18-3.75-1.07-3.37,2.71-4.83,2.1-.82,4.03-2.3,6.37-2.66-.47-1.74-1.75-2.72-2.3-4.73,2.73-.83,5.17,1.06,7.67.56,2.76-.54,4.81.29,6.34,3.01.84,1.49,3.08,1.64,4.94,1.63,3.5-.02,7.01,0,10.48,0,.88-1.99.95-4.18,1.59-6.23-6.75-2.82-6.93-3.6-1.54-8.93,2.69-2.65,4.18-5.51,3.14-9.38-.19-.72-.53-1.87,1.31-2.52,1.12.31,1.34,3.08,3.3,2.5,1.53-.46,2.97-1.34,3.89-2.7,1.78-2.64,5.37-3.06,7.29-5.92-.71-.66-1.2-1.26-1.47-1.8l-1.13.73c-1.63,1.8-3.03.3-3.39-.82-.68-2.13-1.97-4.03-1.77-6.59.39-5.14.07-5.29-4.96-7.38-2.74-1.14-3.73-6.88-1.57-8.96.61-.59,1.25-1.15,1.97-1.57l-.4-.76c-.07-5.9-1.07-7.4-7.82-9.24-2.79-.76-4.65-2.18-5.98-3.9-.04-4.55,2.95-6.25,6.19-7.76-.95-2.89-4.05-2.95-5.81-5,1.85-3.24,1.99-6.92,2.3-10.67.22-2.52-.46-3.35-2.5-3.91-2.6-.73-3.33-1.45-2.23-4.76,1.36-4.1,3.49-8.2,3.39-12.75-.05-2.13,1.42-3.35,2.74-4.68,4.51,1.51,8.65-.17,13.02-1.3-.94-2.26-2.11-4.21-.99-6.49.16-.31.19-.9,0-1.13-2.94-3.53-1.36-7.5-1.12-11.31.15-2.45,0-4.8-.99-7.02l-.98.4c-1.53,1.13-2.09,3.06-3.5,4.28l-1.17-.39c-.77-2.74-.59-5.98-3.89-7.44q-.68,5.29-5.58,5.96c.87,3.37-.79,6.41-1.42,9.66-.5,2.58-1.3,3.86-4.33,2.41-3.24-1.54-4.52-.7-6.6,2.63-1.73,2.78-2.76,5.71-3.12,8.97-.37,3.37-.81,6.84-5.5,6.63.41,1.93,2.07,4.13.02,4.89-2.74,1.01-5.15,3.56-8.09,3.14-3.79-.54-5.6,3.22-8.97,3.33-.7.02-.83,1.47-1.24,2.21-1.5,2.72-.73,5.86-1.89,8.6-1.95.46-3.9.98-5.57,1.61-1.76-.83-2.67-2.35-3.81-3.1-3.21,1.27-3.62,4.63-5.46,6.26-4.98-.72-10.67,3.63-14.17-3.3-1.37,3.34-4.41,4.31-5.28,7.29.85,1.18,2.25,2.06,3.13,3.33.85,1.25.63,2.72-.78,3.41-.75.36-1.62.1-2.38-1.04-2.55-3.86-6.08-3.77-9.65-.06,3.84,3.27,4.01,3.72,1.12,7.36-1.52,1.91-1.92,4.24-2.87,6.34-1.6-.66-2.87-1.49-3.97-2.51-.73.61-.97,1.34-1.31,2.03-1.28,2.58-3.45,4.3-5.8,5.87-2.09,1.38-2.26-1.27-3.52-1.56-.42-.1-.87.31-1.16.32-6.51.21-13.19.79-16.57-7.52-.98,1.54-2.84,1.28-1.78,3.32.44.86.79,1.83,1.13,2.73.67,1.77-.31,3.57-1.9,4.1-.97.32-1.77-1.17-1.94-2.57-.32-2.59-2.19-2.44-3.83-1.52-3.5,1.98-8.07,2.37-9.67,6.35-1.83.75-2.89-1.67-4.37-.17-.3.31-2.6,8.27-2.3,8.55,1.33,1.27,2.46,2.99.67,4.17-1.64,1.08-3.22-.77-4.56-1.85-.56-.44-1.41-.8-1.56-1.53-.93-4.47-5.47-5.74-7.61-9.25-1.41,2.48-2.42,4.88-2.06,7.3.64,4.24-2.06,6.64-4.19,9.84-1.06-2.95-1.48-3.16-4.82-5.58-3.73-2.7-8.58-4.2-10.2-9.29-.25-.79-1.21-1.1-2.27-1.26-4.89-.72-10.49-4.95-10.91-10.82q5.82-6.01,4.7-9.28c-1.8-1.27-1.79,1.7-3.96,1.34-4.67-.79-1.91-6.16-5.4-7.28-1.23-.4-.86-1.75-.75-2.68.2-1.69,1.47-3.11,2.43-4.18,2.27-2.53,2.3-5.34,2.17-8.28-.1-2.42-1.38-3.25-3.87-2.78-3.53.68-6.05,2.83-8.35,5.31-.72-.72-1.18-1.32-1.77-1.74-3.48-2.47-5.55-1.53-6.23,2.71-.28,1.7-.58,3.42-1.18,5.46-2.88-.1-5.81.5-7.42-3.1-.64-1.43-2.12-1.8-3.81-2.11-2.6-.47-6.15-1.02-6.14-4.53,0-5.68-1.68-10.6-5.26-15.44,1.65-1.2,2.63-2.9,3.43-4.49.87-1.74,3.13-3.62.99-6.19-1.66-1.99-.44-4.04,1.16-5.35,2.39-1.96,4.36-4.23,6.09-6.7,4.71,1.43,5.41,1.19,8.27-2.69.54-.74,1.18-1.77,1.95-1.88,3.58-.53,4.65-3.68,7.09-5.92-3.68-3.64-6.06-7.88-8.97-11.16,1.17-8.03,7.64-10.45,13.27-12.67,3.51-1.39,6.63-2.72,9.58-5.26-2.27-3-3.46-5.9-.77-9.07.72-.84.5-2.05.4-3.09-.36-3.39-2.13-6.39-3.16-10.05,3.44-.2,6.57.27,9.42-1.21,2.28-1.19,3.3-2.22,1.21-4.75-3.75-4.52-2.66-8.41,2.67-10.85,1.58,1.32.74,5.08,3.87,4.56,2.56-.43,3.42-2.96,4.37-5.3,1.35-3.31,3.48-5.94,7.72-5.51,1.71.18,3.34-.19,4.39-1.75-2.6-3.86-2.21-7.64,1.05-11.46,1.15.67,2.64.91,2.75,2.73.13,2.01.34,4.14,3.09,4.27,2.65.11,3.03-2.22,3.86-3.9.85-1.72,1.66-3.64,1.85-5.44.3-2.83,1.8-4.84,2.83-6.96.85-.06,1.24-.06,1.59.34,2.6,3.07,2.99,3.03,5.85.42,1.89-1.72,2.79-3.73,2.7-6.25-.06-1.64.74-2.97,1.99-3.82.63-.43,1.54.03,2.32.67,4.46,3.63,7.41,3.34,10.83-1.16,1.04-1.36,2.15-2.6,3.57-3.42,1.39-.81,2.25-1.65,2.62-3.08l-.31-.08c-1.44-.49-2.58-1.68-4.28-1.58-3.57.19-5.93-3.2-4.67-6.6,2.13-5.79.21-9.35-5.78-10.16.1-3.72-1.08-6.67-5.51-7.01-.41-.03-.78-.73-1.17-1.12l-.33-.19c-.35.64-.93,1.06-1.62,1.34-5.54,2.19-7.8,8.82-13.98,10.23-1.06.24-1.84,1.72-2.75,2.63-.26,0-.64.11-.76-.02-2.9-3.01-5.52-6.38-10.57-3.57-1.83,1.02-3.31-1.27-4.72-1.91-1.71.24-1.54,2.28-3.01,2.39-4.57-8.21-9.9-16.3-3.98-26.28-1.62-3.73-6.3-4.54-8.19-8.15-1.15.56-1.53,1.15-1.93,2.09-1.4,3.32-2.75,3.61-5.75,1.57-.53-.36-1.43-1.1-1.54-1.06-6.2,2.21-3.15-2.22-3.12-4.37.03-1.29-.41-2.19-1.71-2.65-1.56-.38-1.67,2.18-3.64,1.83-.96-2-2.12-4.09-3.17-6.22-1.06-2.15.57-4.01,1.54-5.78.94-1.72,1.82-3.42.31-5.05-2.37-2.56.97-3.63,1.27-5.84-2.39-.63-3.22-2.98-4.75-4.69-.77-.87-.61-2.08-.28-2.69.64-1.18,2.53-2.05.65-3.51-1.37-1.07-2.71-.23-4.03,1.4-1.21-3.74-5.58-4.96-4.7-9.65.36-1.93-3.33-2.54-3.95-5.36-.47-2.16-1.29-3.44,1.02-4.75,1.69-.96,2.07-2.57,1.13-4.22-.41-.71-.47-1.81-.3-1.91,2.69-1.47,2.08-4.58,3.42-6.72.68-1.09,2.05-2.3.81-3.85-1.27-1.61-3.11-2.59-5.03-2.25-2.21.39-4.47.81-6.62,1.5-2.94.95-3.16,3.67-3.5,6.19-.19,1.42.24,2.9-.42,4.75-3.49-1.17-4.49,1.55-5.72,4.02-3.46-1.41-5.63-3.87-7.55-6.79-1.51-2.28-.84-4.68-1.16-7.03-.22-1.65-1.18-3.04-2.51-4.58-1.71,2.92-6,2.98-6.85,6.89-.22,1-1.5.35-2.27.37-2.7.09-5.42-.1-7.88,1.48.23,1.93,2.84,3.74.05,5.5-2.41-1.16-5.58-1.21-6.97-4.21-.31-.68-1.04-.47-1.54-.38-4.43.8-5.96-2.29-7.38-5.48-.52-1.16-.8-2.04.69-3.19,3.97-3.05,4.22-8.22,6.36-12.33.8-1.54-.28-2.5-.59-3.49-.51-1.6-1.59-3.06-2.23-4.71-1.64-4.28-2.76-5.09-7.36-5.02-1.64.03-3.2-.27-4.23-1.27-2.1-2.05-4.68-3.63-6-5.56l-.67.55c-1.46,1.61-3.17,2.6-5.45,2.35-1.56-.17-3.03.34-4.25,1.2-.87.62-1.75,1.21-2.75,1.09-6.57-.74-10.52,3.78-14.74,7.49-2.57,2.26-2.32,5.07-.06,8.11,1.92,2.57.13,7.28-2.67,8.66-3.39,1.67-7.47,2.86-8.94,6.93-.82,2.25-2.09,2.97-4.35,2.73-3.34-.35-3.82,2.6-5.38,4.71,2.49,2.53,6.15,2.6,8.6,4.89.95.89,1.81,1.26,2.39,2.77,1.27,3.28,4.04,4.61,7.81,2.83.65,2.36,1.64,3.86,4.04,4.78,3.01,1.13.7,3.87.28,5.64-.32,1.37-1.98,3.04-3.37,3.42-4.23,1.17-5.05,5.17-7.57,7.82.88.91.89,2.09,1.76,2.82,3.92,3.25,3.63,7.18,2.5,11.71-.69,2.75-2.1,3.07-4.03,2.62-2.42-.57-4.37-.4-5.42,2.03-.46,1.07-1.07,1.22-1.99,1.15-2.81-.23-5.09.48-6.69,3.07-.4.64-1.53,1.06-2.66.85-2.52-.46-4.54.33-5.84,2.69-.95,1.71-2.18,1.62-3.49.39-2.28-2.13-4.99-3.01-7.72-1.43-1.08.64-1.38-.05-2.01-.14-2.08-.3-4.19.2-4.97,2.01-1.58,3.68-5.42,6.27-5.24,10.86.01.42-.1,1.08-.64,1.58v396.94h92.55c.46-2.83-2.83-1.08-3.51-2.68-.15-.36-.48-.54-.38-.76.03-.84.81-1.07,1.2-1.59,3.03-3.98,3.02-3.95,7.4-1.19,1.45.92,2.68.51,3.92-.72,1.23-1.24,1.76-2.58.68-3.88-.93-1.12-1.61-2.31-2.31-3.59,1.99-1.88,4.74-1.41,7.04-2.3,1.53-4.76,1.47-4.92,7.03-7.33,3.11-1.35,3-4.65,4.78-6.55,1.81-1.94,5.52-.92,7.34-3.97,2.24-3.75,6.44-4.19,10.04-1.61,5.61,4.03,10.46,2.09,11.75-5.12,1.78.44,4.94-.98,5.08,1.25.17,2.57,1.08,6.08.33,7.59-1.64,3.3-.91,6.38-1.14,9.52-.12,1.68-.66,3.03-1.63,4.27-2.73,3.49-2.47,4.6,1.57,6.23,5.18,2.1,5.79,2.97,5.83,8.56.01,1.33.03,2.66.31,3.87h52.54c.8-.64,1.53-1.39,2.18-2.28.68.98,1.12,1.7,1.52,2.21.02.02.03.04.05.07h5.29c.04-.35.03-.73-.01-1.14Z"/>
      <path id="unknown1" class="cls-6" d="M152.24,808.07c-4.04-1.63-4.3-2.74-1.57-6.23.97-1.24,1.51-2.59,1.63-4.27.23-3.14-.5-6.22,1.14-9.52.75-1.51-.16-5.02-.33-7.59-.14-2.23-3.3-.81-5.08-1.25-1.29,7.21-6.14,9.15-11.75,5.12-3.6-2.58-7.8-2.14-10.04,1.61-1.82,3.05-5.53,2.03-7.34,3.97-1.78,1.9-1.67,5.2-4.78,6.55-5.56,2.41-5.5,2.57-7.03,7.33-2.3.89-5.05.42-7.04,2.3.7,1.28,1.38,2.47,2.31,3.59,1.08,1.3.55,2.64-.68,3.88-1.24,1.23-2.47,1.64-3.92.72-4.38-2.76-4.37-2.79-7.4,1.19-.39.52-1.17.75-1.2,1.59-.1.22.23.4.38.76.68,1.6,3.97-.15,3.51,2.68h65.33c-.28-1.21-.3-2.54-.31-3.87-.04-5.59-.65-6.46-5.83-8.56Z"/>
      <path id="unknown3" class="cls-6" d="M17.18,74.78c5.38-1.46,10.85-1.24,16.35-1.22,6.22.03,12.5.71,18.67-.37,3.94-.7,7.34-.17,10.55,2.34,2.91,2.28,5.5,4.93,8.54,7.04,4.92,3.42,10.85,3.75,14.34.35,4.32-4.22,8.04-8.82,10.32-14.68,1.9-4.87,1.16-10.24,3.73-14.86,2.8-5.05,1.82-10.05-.82-14.75-1.91-3.41-3.85-6.81-6.51-9.8-5.26-5.92-1.79-14.23,2.76-16.52,7.44-3.74,14.72-7.68,21.93-11.81H.5v87.8c4.49-2.86,7.87-7.1,11.99-10.42,1.48-1.2,2.76-2.58,4.69-3.1Z"/>
    </g>
  </g>
</svg>