<?xml version="1.0" encoding="UTF-8"?>
<svg id="_图层_2" data-name="图层 2" xmlns="http://www.w3.org/2000/svg" viewBox="0 0 195.66 168.82">
  <defs>
    <style>
      .cls-1 {
        fill: #fff;
      }

      .cls-2 {
        fill: #2c2c2b;
      }
    </style>
  </defs>
  <g id="_图层_1-2" data-name="图层 1">
    <path class="cls-1" d="M132.83,0l-8.21,1.81c-17.5-1.05-36.56,1.35-53.87,0-2.63-.21-5.06-1.35-7.62-1.81v4.34l.47.42,1.32-.27v4.19h66.11v-4.19h1.79V0Z"/>
    <path class="cls-1" d="M127.15,10.48h-58.63v10.78h-21.84v11.08h-22.44v11.22l4.49,5.09v22h34.4c-.01-1-.3-2.17,1.03-2.11h68.37c.02.74-.23,1.62.45,2.11h33.8l.45-.45v-22.15l4.49-4.49v-11.22h-22.44v-10.63l-.45-.45h-21.39v-10.03c0-.1-.4-.45-.3-.75Z"/>
    <path class="cls-1" d="M66.72,14.07h-20.49c-.64,0-4.25-1.59-4.64-1.2v3.29s1.8,0,1.8,0v3.59s22.88,0,22.88,0l.45-.45v-5.24Z"/>
    <path class="cls-1" d="M149.44,14.07h-20.19v5.69l22.84-.04c.91-.3.34-2.74.49-3.55h1.5s0-3.29,0-3.29c-.24-.26-3.94,1.11-4.64,1.2Z"/>
    <path class="cls-1" d="M44.88,24.84h-20.79c-.64,0-4.25-1.59-4.64-1.2v3.29s1.66.28,1.66.28l.13,3.31h23.18l.45-.45v-5.24Z"/>
    <path class="cls-1" d="M171.57,24.84h-20.49v5.69h23.63v-3.59s1.5,0,1.5,0v-3.29c-.25-.26-3.94,1.11-4.64,1.2Z"/>
    <polygon class="cls-1" points="130.14 70.64 65.82 70.64 65.82 72.44 28.73 72.44 28.73 88.3 167.24 88.3 167.24 72.44 130.14 72.44 130.14 70.64"/>
    <path class="cls-1" d="M26.33,72.74L.36,79.68c-.69,5.8-.25,11.76.1,17.6l25.87-8.69v-15.86Z"/>
    <polygon class="cls-1" points="195.66 79.62 169.63 72.74 169.63 88.6 195.66 97.28 195.66 79.62"/>
    <path class="cls-1" d="M195.66,99.98l-26.8-8.95c-28.29-.11-56.64-.04-84.95-.01H27.38S.31,99.98.31,99.98v68.85h9.57l.04-43.81c1.57-20.23,23.95-31.78,41.04-20.19,5.03,3.41,11.27,12.1,11.27,18.35v45.65h6.88v-45.65c0-4.09,3.95-11.8,6.59-14.96,13.11-15.66,37.78-13.54,47.71,4.33,1.32,2.37,3.73,8.35,3.73,10.93v45.35h6.58v-44.45c0-1.84,1.38-6.23,2.14-8.04,7.62-18.07,31.6-21.74,44.22-6.62,2.43,2.91,5.99,9.99,5.99,13.76v45.35h9.57v-68.85Z"/>
    <path class="cls-1" d="M124.46,168.82v-45.35c0-4.97-4.75-12.85-8.37-16.17-16.95-15.51-43.37-3.86-44.59,18.55v42.97h6.29v-44.45c0-1.75,1.92-6.28,2.87-7.91,9.8-16.83,35.12-11.02,37.52,7.91v44.45h6.29Z"/>
    <path class="cls-1" d="M59.84,168.82v-44.15c0-12.87-13.93-22.8-26.17-21.7-9.73.88-21.1,10.94-21.1,21.1v44.75h5.98v-45.05c0-2.04,2.66-6.89,4.03-8.53,8.81-10.58,25.18-7.81,30,5.01.3.81,1.27,3.77,1.27,4.42v44.15h5.98Z"/>
    <path class="cls-1" d="M183.69,168.82v-42.07c-.27-22.33-28.09-32.57-42.31-14.78-1.98,2.47-4.96,8.69-4.96,11.8v45.05h5.98v-45.05c0-7.17,9.25-14.53,16.04-15.08,9.28-.74,19.26,7.32,19.26,16.87v43.25h5.98Z"/>
    <path class="cls-2" d="M127.15,10.48c-.1.29.3.65.3.75v10.03h21.39l.45.45v10.63h22.44v11.22l-4.49,4.49v22.15l-.45.45h-33.8c-.68-.49-.43-1.37-.45-2.1h-68.37c-1.33-.08-1.05,1.09-1.03,2.1H28.73v-22l-4.49-5.09v-11.22h22.44v-11.08h21.84v-10.78h58.63ZM96.56,41.68c-11.72,1.58-9.93,20,2.88,18.45,11.35-1.37,9.76-20.16-2.88-18.45ZM54.12,43.14l-2.04-.03c.19,2.48-2.96,2.91-2.7,5.5.09.92,1.13,1.63.85,2.65-.13.47-1.39,1.39-1.81,2.1-3.02,5.08,3.53,10.21,8.15,6.96,1.97-1.39,2.72-4.13,1.85-6.37-.38-.97-2.11-2.29-2.17-2.94-.08-.77.77-1.66.85-2.45.21-2.16-2.76-3.37-2.97-5.43ZM143.57,43.14l-2.05-.02c.09,2.75-3.12,2.78-2.69,5.8.1.73.89,1.64.74,2.3-.27,1.17-2.37,1.79-2.56,4.31-.51,7.12,10.48,7.86,11.08.89.29-3.34-2.51-4.65-2.59-5.38-.05-.48.69-1.47.78-2.13.41-2.92-2.47-3.19-2.71-5.78Z"/>
    <path class="cls-2" d="M195.66,99.98v68.85h-9.57v-45.35c0-3.77-3.56-10.85-5.99-13.76-12.62-15.12-36.6-11.46-44.22,6.62-.76,1.81-2.14,6.2-2.14,8.04v44.45h-6.58v-45.35c0-2.59-2.42-8.56-3.73-10.93-9.93-17.86-34.6-19.99-47.71-4.33-2.65,3.16-6.59,10.86-6.59,14.96v45.65h-6.88v-45.65c0-6.26-6.24-14.94-11.27-18.35-17.09-11.59-39.47-.04-41.04,20.19l-.04,43.81H.31v-68.85l27.07-8.98h56.53c28.31-.02,56.66-.08,84.95.03l26.8,8.95Z"/>
    <polygon class="cls-2" points="130.14 70.64 130.14 72.44 167.24 72.44 167.24 88.3 28.73 88.3 28.73 72.44 65.82 72.44 65.82 70.64 130.14 70.64"/>
    <path class="cls-2" d="M124.46,168.82h-6.28v-44.45c-2.4-18.93-27.72-24.74-37.52-7.91-.95,1.62-2.87,6.16-2.87,7.91v44.45h-6.28v-42.97c1.21-22.41,27.63-34.06,44.58-18.55,3.63,3.32,8.37,11.2,8.37,16.17v45.35Z"/>
    <path class="cls-2" d="M59.84,168.82h-5.98v-44.15c0-.65-.96-3.61-1.27-4.42-4.82-12.83-21.19-15.59-30-5.01-1.37,1.64-4.03,6.49-4.03,8.53v45.05h-5.98v-44.75c0-10.16,11.36-20.22,21.1-21.1,12.24-1.11,26.17,8.83,26.17,21.7v44.15Z"/>
    <path class="cls-2" d="M183.69,168.82h-5.98v-43.25c0-9.56-9.98-17.62-19.26-16.87-6.8.54-16.04,7.9-16.04,15.08v45.05h-5.98v-45.05c0-3.11,2.98-9.32,4.96-11.8,14.22-17.79,42.04-7.55,42.32,14.78v42.07Z"/>
    <path class="cls-2" d="M132.83,0v4.49h-1.79v4.19h-66.11v-4.19l-1.32.27-.47-.42V0c2.56.45,4.99,1.6,7.62,1.81,17.32,1.36,36.37-1.05,53.87,0l8.21-1.81Z"/>
    <path class="cls-2" d="M26.33,72.74v15.86L.46,97.29c-.34-5.84-.79-11.81-.1-17.6l25.97-6.95Z"/>
    <polygon class="cls-2" points="195.66 79.62 195.66 97.28 169.63 88.6 169.63 72.74 195.66 79.62"/>
    <path class="cls-2" d="M44.88,24.84v5.24l-.45.45h-23.18l-.13-3.31-1.67-.28v-3.29c.39-.39,3.99,1.2,4.64,1.2h20.79Z"/>
    <path class="cls-2" d="M171.57,24.84c.7-.08,4.39-1.46,4.64-1.2v3.29s-1.5,0-1.5,0v3.59s-23.63,0-23.63,0v-5.69h20.49Z"/>
    <path class="cls-2" d="M66.72,14.07v5.24l-.45.45h-22.89v-3.59s-1.8,0-1.8,0v-3.29c.39-.39,3.99,1.2,4.64,1.2h20.49Z"/>
    <path class="cls-2" d="M149.44,14.07c.7-.08,4.39-1.46,4.64-1.2v3.29s-1.5,0-1.5,0c-.15.81.42,3.25-.49,3.55l-22.84.04v-5.69h20.19Z"/>
    <path class="cls-1" d="M96.56,41.68c12.64-1.71,14.23,17.08,2.88,18.45-12.81,1.55-14.61-16.86-2.88-18.45Z"/>
    <path class="cls-1" d="M54.12,43.14c.21,2.06,3.18,3.27,2.97,5.43-.08.79-.92,1.68-.85,2.45.06.65,1.79,1.96,2.17,2.94.88,2.24.13,4.98-1.85,6.37-4.62,3.25-11.17-1.88-8.15-6.96.42-.71,1.69-1.63,1.81-2.1.28-1.02-.76-1.73-.85-2.65-.26-2.58,2.89-3.02,2.7-5.5l2.04.03Z"/>
    <path class="cls-1" d="M143.57,43.14c.24,2.59,3.13,2.86,2.71,5.78-.09.66-.84,1.65-.78,2.13.08.72,2.88,2.04,2.59,5.38-.59,6.97-11.59,6.23-11.08-.89.18-2.53,2.29-3.14,2.56-4.31.15-.67-.64-1.58-.74-2.3-.43-3.02,2.78-3.05,2.69-5.8l2.05.02Z"/>
  </g>
</svg>