<?xml version="1.0" encoding="UTF-8"?>
<svg id="_图层_2" data-name="图层 2" xmlns="http://www.w3.org/2000/svg" viewBox="0 0 160.88 143.28">
  <defs>
    <style>
      .cls-1 {
        fill: #fff;
      }

      .cls-2 {
        fill: #e00000;
      }

      .cls-3 {
        fill: #2c2c2b;
      }
    </style>
  </defs>
  <g id="_图层_1-2" data-name="图层 1">
    <path class="cls-1" d="M102.73,27.97l-.45-.45V9.9h-43.65v17.17h-24.69v17.47H9.25v18.22l7.23,7.23v66.72h39.14v-39.61c-1.05-1.78-10.84-12.11-10.84-12.95v-5.27h10.39l.45-.45v-9.79c2.45.7,4.81,2.78,7.36,3.03,11.22,1.08,24.15-.84,35.55,0l7.07-3.02v10.24h10.54v5.57l-10.54,12.65v39.61h39.14v-59.19l7.23-7.23v-24.25h-24.99v-18.07h-24.23ZM114.78,106.01c-.87,2.82-5.67,2.64-6.17-.49-.29-1.82-.48-7.26,1.7-7.9,1.78-.52,4.26.16,4.59,2.21.16,1.02.16,5.28-.12,6.17Z"/>
    <g>
      <rect class="cls-3" x="49.13" width="62.61" height="10.19"/>
      <polygon class="cls-3" points="58.72 13.19 51.83 13.19 51.83 16.79 24.57 16.79 24.57 26.83 25.02 27.28 58.72 27.28 58.72 13.19"/>
      <polygon class="cls-3" points="109.05 13.19 102.16 13.19 102.16 27.73 102.61 28.18 136.31 28.18 136.31 17.69 109.05 17.69 109.05 13.19"/>
      <path class="cls-3" d="M34.15,30.28h-6.14c-.07,0-.18-.24-.3-.23l-.41.42-.04,3.41H.45l-.45.45v9.89l.45.45h33.7v-14.39Z"/>
      <polygon class="cls-1" points="133.61 31.17 126.72 31.17 126.72 46.16 160.88 46.16 160.88 35.97 133.61 35.97 133.61 31.17"/>
      <path class="cls-3" d="M9.59,47.66H2.7v17.84l7.19,7.19v70.59h52.73v-45.71l.45-.45h35.2v46.16h53.03v-62.8l7.19-7.19v-23.68l-.45-.45h-6.44v21.13l-7.19,7.19v58.9h-38.95v-39.42l10.49-12.59v-5.55h-10.49v-10.19l-7.03,3c-11.35-.83-24.21,1.08-35.37,0-2.54-.24-4.89-2.32-7.32-3.01v9.74l-.45.45h-10.34v5.25c0,.84,9.74,11.12,10.79,12.89v39.42H16.78v-66.4l-7.19-7.19v-15.14Z"/>
      <path class="cls-1" d="M110.16,97.48c-2.17.64-1.98,6.05-1.69,7.86.5,3.11,5.28,3.29,6.14.48.28-.89.28-5.13.12-6.14-.32-2.05-2.79-2.72-4.57-2.2Z"/>
      <rect class="cls-3" x="70.1" y="104.31" width="20.97" height="38.97"/>
      <path class="cls-3" d="M9.59,47.66v15.14l7.19,7.19v66.4h38.95v-39.42c-1.04-1.77-10.79-12.05-10.79-12.89v-5.25h10.34l.45-.45v-9.74c2.44.69,4.78,2.77,7.32,3.01,11.16,1.07,24.03-.84,35.37,0l7.03-3v10.19h10.49v5.55l-10.49,12.59v39.42h38.95v-58.9l7.19-7.19v-21.13h6.44l.45.45v23.68l-7.19,7.19v62.8h-53.03v-46.16h-35.2l-.45.45v45.71H9.89v-70.59l-7.19-7.19v-17.84h6.89Z"/>
      <rect class="cls-3" x="70.1" y="104.31" width="20.97" height="38.97"/>
      <rect class="cls-3" x="49.13" width="62.61" height="10.19"/>
      <path class="cls-3" d="M34.15,30.28v14.39H.45l-.45-.45v-9.89l.45-.45h26.81l.04-3.41.41-.42c.12-.01.23.23.3.23h6.14Z"/>
      <polygon class="cls-3" points="109.05 13.19 109.05 17.69 136.31 17.69 136.31 28.18 102.61 28.18 102.16 27.73 102.16 13.19 109.05 13.19"/>
      <polygon class="cls-3" points="58.72 13.19 58.72 27.28 25.02 27.28 24.57 26.83 24.57 16.79 51.83 16.79 51.83 13.19 58.72 13.19"/>
      <polygon class="cls-3" points="133.61 31.17 133.61 35.97 160.88 35.97 160.88 46.16 126.72 46.16 126.72 31.17 133.61 31.17"/>
      <path class="cls-2" d="M110.16,97.48c1.77-.52,4.24.16,4.57,2.2.16,1.01.16,5.25-.12,6.14-.86,2.81-5.65,2.63-6.14-.48-.29-1.81-.48-7.23,1.69-7.86Z"/>
    </g>
  </g>
</svg>