<?xml version="1.0" encoding="UTF-8"?>
<svg id="_图层_2" data-name="图层 2" xmlns="http://www.w3.org/2000/svg" viewBox="0 0 185.06 159.18">
  <defs>
    <style>
      .cls-1 {
        fill: #fff;
      }

      .cls-2 {
        fill: #e00000;
      }

      .cls-3 {
        fill: #2c2c2b;
      }
    </style>
  </defs>
  <g id="_图层_1-2" data-name="图层 1">
    <path class="cls-3" d="M124.37,18.85v20.2l.21.21h27.13s.16-.25.36.07v18.77h27.7v21.77l-6.43,6.42v72.88h-40.84v-5.21c0-.08-.29-.9-.36-1.07-.46-1.18-1.34-1.92-2.21-2.79v-44.47h3.64l.18-.21c-.17-.77-.13-1.65-.12-2.44,0-.41.27-.83-.06-1.06h-3.64v-10.99h4.07c.71-.55,1.25-1.4,1.85-2,1.79-1.8,4-3.71,5.7-5.58.24-.26.44-.62.66-.91v-14.85l-.28-.14-9.2,6.08c-26.72.23-53.56.19-80.29.02l-9.32-6.1-.28.14v14.85l8.21,8.49h4v10.99h-3.64v3.5l.21.21h3.5c.03,3.97-.03,7.96-.01,11.92.04,10.81.07,21.75-.06,32.62-.99.86-2.5,2.71-2.5,4.07v4.93H11.72v-73.02l-6.43-6.42v-21.63h27.7v-18.77l27.7-.29v-20.2h63.68Z"/>
    <path class="cls-3" d="M115.24,105.65c-.25,1.37-.04,2.82-.05,4.21-.03,13.3-.27,26.75.01,40.1-1.01,1.06-1.93,1.9-2.32,3.37-.27,1.04-.34,2.8-.37,3.92-.02.64.31,1.22.01,1.93h-6.43v-46.4h-27.13v46.4h-6.43v-4.78c0-.15-.32-1.23-.4-1.45-.44-1.14-1.3-2.01-2.17-2.83v-44.47h45.26Z"/>
    <path class="cls-3" d="M138.51,74.24v6.92l-6.15,5.99c-26.55.09-53.21.21-79.75-.06l-6.06-6.08v-6.78l4.72,3.06c27.54.08,55.2.25,82.71-.09l4.52-2.98Z"/>
    <path class="cls-3" d="M130.08,0v4.21c0,.15-1.67,2.05-1.92,2.36-.46.55-1.46,1.4-1.79,1.92-.11.18-.18.28-.14.51h3.86v6.14H54.98v-6.14h4c.06-.25-.1-.29-.21-.43-.46-.6-3.78-4.04-3.78-4.35V0l11.63,4.29h51.84s11.64-4.29,11.64-4.29Z"/>
    <path class="cls-3" d="M126.09,90.94l.05,61.61.19.18c.48.06,1.14.18,1.53.48.11.08.81.98.81,1.05v4.93h-12.28v-4.93c0-.2.64-.99.86-1.13.6-.4,1.19-.22,1.71-.58v-61.6h7.14Z"/>
    <path class="cls-3" d="M66.12,90.94v61.67c.56.13,1.3.23,1.76.59.17.13.81,1.08.81,1.19v4.78h-12.28v-4.93c0-.69,1.83-1.83,2.57-1.5v-61.82h7.14Z"/>
    <path class="cls-3" d="M69.97,101.93v-10.99h45.05c.08,0,.23.24.22.36l-.22,10.63h-45.05Z"/>
    <polygon class="cls-3" points="185.06 39.26 185.06 43.47 181.06 48.11 185.06 48.11 185.06 54.39 155.79 54.39 155.79 43.54 173.85 43.54 185.06 39.26"/>
    <polygon class="cls-3" points="56.98 24.56 56.98 35.41 27.71 35.41 27.71 29.27 31.71 29.27 27.73 24.45 27.71 20.27 38.77 24.56 56.98 24.56"/>
    <path class="cls-3" d="M29.28,43.54v10.85H0c-.05-.15.14-.31.14-.36v-5.92h3.86L.04,43.31c0-.13.11-.22.11-.26v-3.93l11.07,4.43h18.06Z"/>
    <path class="cls-3" d="M157.36,20.27v4.35l-3.72,4.13-.14.51h3.86v6.14h-29.13v-10.49s-.25-.16.07-.36h17.99l11.07-4.28Z"/>
    <path class="cls-2" d="M96.64,127.81c1.41-.23,2.75.78,2.81,2.23.02.47-.24.94-.2,1.36.04.45.53.95.57,1.59.26,3.49-5.23,3.91-5.43.28-.05-.98.53-1.28.57-1.86.02-.38-.28-.72-.28-1.13-.01-1.08.88-2.29,1.96-2.47ZM95.75,132.21c-.79.64-.37,2.12.45,2.54,1.6.82,3.43-.89,2.49-2.49-.26-.18-.57.25-.83.33-.66.19-1.61.15-2.1-.38Z"/>
    <path class="cls-2" d="M86.01,135.01c-.58-.62-.76-1.74-.59-2.56.08-.38.52-.76.53-1.03.01-.25-.26-.71-.29-1.14-.16-3.33,5.06-3.45,4.71.41-.02.27-.24.56-.24.75,0,.18.46.8.53,1.27.38,2.79-2.98,4.1-4.65,2.29ZM86.6,132.22c-.7.67-.36,1.96.4,2.44,1.59,1.03,3.71-.87,2.46-2.44-.89.62-1.97.62-2.86,0Z"/>
    <path class="cls-1" d="M95.75,132.21c.49.52,1.45.57,2.1.38.26-.08.57-.51.83-.33.94,1.6-.88,3.31-2.49,2.49-.82-.42-1.24-1.9-.45-2.54Z"/>
    <path class="cls-1" d="M86.6,132.22c.89.62,1.97.62,2.86,0,1.24,1.58-.87,3.47-2.46,2.44-.75-.49-1.1-1.77-.4-2.44Z"/>
  </g>
</svg>